<?xml version="1.0" encoding="UTF-8" standalone="no"?>
<!DOCTYPE svg PUBLIC "-//W3C//DTD SVG 1.1//EN" "http://www.w3.org/Graphics/SVG/1.1/DTD/svg11.dtd"
[
<!ATTLIST g
  xmlns:vectornator CDATA #FIXED "http://vectornator.io"
  vectornator:layerName CDATA #IMPLIED >
<!ATTLIST g
  xmlns:vectornator CDATA #FIXED "http://vectornator.io"
  vectornator:mask CDATA #IMPLIED >
<!ATTLIST text
  xmlns:vectornator CDATA #FIXED "http://vectornator.io"
  vectornator:width CDATA #IMPLIED >

<!ATTLIST path
  xmlns:vectornator CDATA #FIXED "http://vectornator.io"
  vectornator:blendMode CDATA #IMPLIED >
<!ATTLIST path
  xmlns:vectornator CDATA #FIXED "http://vectornator.io"
  vectornator:shadowColor CDATA #IMPLIED >
<!ATTLIST path
  xmlns:vectornator CDATA #FIXED "http://vectornator.io"
  vectornator:shadowOpacity CDATA #IMPLIED >
<!ATTLIST path
  xmlns:vectornator CDATA #FIXED "http://vectornator.io"
  vectornator:shadowRadius CDATA #IMPLIED >
<!ATTLIST path
  xmlns:vectornator CDATA #FIXED "http://vectornator.io"
  vectornator:shadowOffset CDATA #IMPLIED >
<!ATTLIST path
  xmlns:vectornator CDATA #FIXED "http://vectornator.io"
  vectornator:shadowAngle CDATA #IMPLIED >

<!ATTLIST image
  xmlns:vectornator CDATA #FIXED "http://vectornator.io"
  vectornator:blendMode CDATA #IMPLIED >
<!ATTLIST image
  xmlns:vectornator CDATA #FIXED "http://vectornator.io"
  vectornator:shadowColor CDATA #IMPLIED >
<!ATTLIST image
  xmlns:vectornator CDATA #FIXED "http://vectornator.io"
  vectornator:shadowOpacity CDATA #IMPLIED >
<!ATTLIST image
  xmlns:vectornator CDATA #FIXED "http://vectornator.io"
  vectornator:shadowRadius CDATA #IMPLIED >
<!ATTLIST image
  xmlns:vectornator CDATA #FIXED "http://vectornator.io"
  vectornator:shadowOffset CDATA #IMPLIED >
<!ATTLIST image
  xmlns:vectornator CDATA #FIXED "http://vectornator.io"
  vectornator:shadowAngle CDATA #IMPLIED >

<!ATTLIST g
  xmlns:vectornator CDATA #FIXED "http://vectornator.io"
  vectornator:blendMode CDATA #IMPLIED >
<!ATTLIST g
  xmlns:vectornator CDATA #FIXED "http://vectornator.io"
  vectornator:shadowColor CDATA #IMPLIED >
<!ATTLIST g
  xmlns:vectornator CDATA #FIXED "http://vectornator.io"
  vectornator:shadowOpacity CDATA #IMPLIED >
<!ATTLIST g
  xmlns:vectornator CDATA #FIXED "http://vectornator.io"
  vectornator:shadowRadius CDATA #IMPLIED >
<!ATTLIST g
  xmlns:vectornator CDATA #FIXED "http://vectornator.io"
  vectornator:shadowOffset CDATA #IMPLIED >
<!ATTLIST g
  xmlns:vectornator CDATA #FIXED "http://vectornator.io"
  vectornator:shadowAngle CDATA #IMPLIED >

<!ENTITY % SVG.filter.extra.content  "| feDropShadow" >
<!ELEMENT feDropShadow EMPTY>
<!ATTLIST feDropShadow
  xmlns:svg CDATA #FIXED "http://www.w3.org/Graphics/SVG/1.1/DTD/svg11.dtd"
  dx CDATA #IMPLIED>
<!ATTLIST feDropShadow
  xmlns:svg CDATA #FIXED "http://www.w3.org/Graphics/SVG/1.1/DTD/svg11.dtd"
  dy CDATA #IMPLIED>
<!ATTLIST feDropShadow
  xmlns:svg CDATA #FIXED "http://www.w3.org/Graphics/SVG/1.1/DTD/svg11.dtd"
  stdDeviation CDATA #IMPLIED>
<!ATTLIST feDropShadow
  xmlns:svg CDATA #FIXED "http://www.w3.org/Graphics/SVG/1.1/DTD/svg11.dtd"
  flood-opacity CDATA #IMPLIED>
<!ATTLIST feDropShadow
  xmlns:svg CDATA #FIXED "http://www.w3.org/Graphics/SVG/1.1/DTD/svg11.dtd"
  in CDATA #IMPLIED>
<!ATTLIST feDropShadow
  xmlns:svg CDATA #FIXED "http://www.w3.org/Graphics/SVG/1.1/DTD/svg11.dtd"
  result CDATA #IMPLIED>
<!ATTLIST feDropShadow
  xmlns:svg CDATA #FIXED "http://www.w3.org/Graphics/SVG/1.1/DTD/svg11.dtd"
  flood-color CDATA #IMPLIED>
]
>
<!-- Created with Vectornator (http://vectornator.io/) -->
<svg height="100%" stroke-miterlimit="10" style="fill-rule:nonzero;clip-rule:evenodd;stroke-linecap:round;stroke-linejoin:round;" version="1.1" viewBox="0 0 3370.82 2384.24" width="100%" xml:space="preserve" xmlns="http://www.w3.org/2000/svg" xmlns:vectornator="http://vectornator.io" xmlns:xlink="http://www.w3.org/1999/xlink">
<defs>
<clipPath id="TextBounds">
<rect height="510.3" width="510.3" x="159.975" y="173.785"/>
</clipPath>
</defs>
<g id="Layer-1" vectornator:layerName="Layer 1">
<g fill="#5c5c5c" opacity="1" stroke="none">
<path clip-path="url(#TextBounds)" d="M189.214 240.928C183.277 240.928 178.941 238.213 176.207 232.784C174.136 228.604 173.101 223.164 173.101 216.465C173.101 210.801 174.449 205.86 177.144 201.641C180.328 196.7 184.654 194.229 190.123 194.229C195.259 194.229 199.263 196.416 202.134 200.791C204.615 204.58 205.855 209.2 205.855 214.649C205.855 223.399 204.468 229.966 201.695 234.351C198.921 238.736 194.761 240.928 189.214 240.928ZM190.093 199.883C186.461 199.883 183.58 201.729 181.451 205.42C179.673 208.506 178.785 212.032 178.785 215.996C178.785 222.422 179.654 227.246 181.392 230.469C183.13 233.692 185.738 235.303 189.214 235.303C193.355 235.303 196.324 232.94 198.121 228.213C199.371 224.932 199.996 220.772 199.996 215.733C199.996 210.44 199.17 206.475 197.52 203.838C195.87 201.202 193.394 199.883 190.093 199.883Z" fill-rule="evenodd"/>
<path clip-path="url(#TextBounds)" d="M246.49 239.815L240.66 239.815L234.859 239.785C233.492 239.785 232.535 239.698 231.988 239.522C230.992 239.17 230.494 238.428 230.494 237.295C230.494 235.323 232.027 234.336 235.093 234.336L236.5 234.366L237.701 234.424C237.701 233.487 237.618 232.1 237.452 230.264C237.286 228.428 237.203 227.051 237.203 226.133C237.203 223.653 237.427 219.883 237.877 214.825C238.306 209.844 238.511 206.065 238.492 203.487C235.875 205.518 234.205 206.534 233.482 206.534C232.701 206.534 232.022 206.241 231.446 205.655C230.87 205.069 230.582 204.395 230.582 203.633C230.582 202.715 231.421 201.602 233.101 200.293C234.156 199.551 235.65 198.36 237.584 196.719C239.302 194.981 240.943 194.112 242.505 194.112C243.814 194.112 244.468 194.864 244.468 196.368C244.468 196.817 244.41 197.486 244.293 198.374C244.175 199.263 244.117 199.932 244.117 200.381C244.117 201.026 244.151 202.002 244.219 203.311C244.288 204.619 244.322 205.596 244.322 206.241C244.322 208.467 244.087 211.787 243.619 216.202C243.15 220.616 242.916 223.926 242.916 226.133C242.916 227.266 242.994 228.643 243.15 230.264C243.306 231.885 243.394 233.213 243.414 234.248L246.49 234.19C247.31 234.19 247.989 234.458 248.526 234.995C249.063 235.533 249.332 236.202 249.332 237.002C249.332 237.823 249.063 238.496 248.526 239.024C247.989 239.551 247.31 239.815 246.49 239.815Z" fill-rule="evenodd"/>
<path clip-path="url(#TextBounds)" d="M288.707 240.928C282.769 240.928 278.433 238.213 275.699 232.784C273.628 228.604 272.593 223.164 272.593 216.465C272.593 210.801 273.941 205.86 276.636 201.641C279.82 196.7 284.146 194.229 289.615 194.229C294.752 194.229 298.755 196.416 301.627 200.791C304.107 204.58 305.347 209.2 305.347 214.649C305.347 223.399 303.961 229.966 301.187 234.351C298.414 238.736 294.253 240.928 288.707 240.928ZM289.586 199.883C285.953 199.883 283.072 201.729 280.943 205.42C279.166 208.506 278.277 212.032 278.277 215.996C278.277 222.422 279.146 227.246 280.884 230.469C282.623 233.692 285.23 235.303 288.707 235.303C292.847 235.303 295.816 232.94 297.613 228.213C298.863 224.932 299.488 220.772 299.488 215.733C299.488 210.44 298.663 206.475 297.012 203.838C295.362 201.202 292.886 199.883 289.586 199.883Z" fill-rule="evenodd"/>
<path clip-path="url(#TextBounds)" d="M345.982 239.815L340.152 239.815L334.351 239.785C332.984 239.785 332.027 239.698 331.48 239.522C330.484 239.17 329.986 238.428 329.986 237.295C329.986 235.323 331.519 234.336 334.586 234.336L335.992 234.366L337.193 234.424C337.193 233.487 337.11 232.1 336.944 230.264C336.778 228.428 336.695 227.051 336.695 226.133C336.695 223.653 336.92 219.883 337.369 214.825C337.798 209.844 338.003 206.065 337.984 203.487C335.367 205.518 333.697 206.534 332.974 206.534C332.193 206.534 331.514 206.241 330.938 205.655C330.362 205.069 330.074 204.395 330.074 203.633C330.074 202.715 330.914 201.602 332.593 200.293C333.648 199.551 335.142 198.36 337.076 196.719C338.795 194.981 340.435 194.112 341.998 194.112C343.306 194.112 343.961 194.864 343.961 196.368C343.961 196.817 343.902 197.486 343.785 198.374C343.668 199.263 343.609 199.932 343.609 200.381C343.609 201.026 343.643 202.002 343.711 203.311C343.78 204.619 343.814 205.596 343.814 206.241C343.814 208.467 343.58 211.787 343.111 216.202C342.642 220.616 342.408 223.926 342.408 226.133C342.408 227.266 342.486 228.643 342.642 230.264C342.798 231.885 342.886 233.213 342.906 234.248L345.982 234.19C346.802 234.19 347.481 234.458 348.018 234.995C348.555 235.533 348.824 236.202 348.824 237.002C348.824 237.823 348.555 238.496 348.018 239.024C347.481 239.551 346.802 239.815 345.982 239.815Z" fill-rule="evenodd"/>
<path clip-path="url(#TextBounds)" d="M388.199 240.928C382.261 240.928 377.925 238.213 375.191 232.784C373.121 228.604 372.086 223.164 372.086 216.465C372.086 210.801 373.433 205.86 376.128 201.641C379.312 196.7 383.638 194.229 389.107 194.229C394.244 194.229 398.248 196.416 401.119 200.791C403.599 204.58 404.839 209.2 404.839 214.649C404.839 223.399 403.453 229.966 400.679 234.351C397.906 238.736 393.746 240.928 388.199 240.928ZM389.078 199.883C385.445 199.883 382.564 201.729 380.435 205.42C378.658 208.506 377.769 212.032 377.769 215.996C377.769 222.422 378.638 227.246 380.377 230.469C382.115 233.692 384.722 235.303 388.199 235.303C392.339 235.303 395.308 232.94 397.105 228.213C398.355 224.932 398.98 220.772 398.98 215.733C398.98 210.44 398.155 206.475 396.504 203.838C394.854 201.202 392.378 199.883 389.078 199.883Z" fill-rule="evenodd"/>
<path clip-path="url(#TextBounds)" d="M445.474 239.815L439.644 239.815L433.843 239.785C432.476 239.785 431.519 239.698 430.972 239.522C429.976 239.17 429.478 238.428 429.478 237.295C429.478 235.323 431.011 234.336 434.078 234.336L435.484 234.366L436.685 234.424C436.685 233.487 436.602 232.1 436.436 230.264C436.27 228.428 436.187 227.051 436.187 226.133C436.187 223.653 436.412 219.883 436.861 214.825C437.291 209.844 437.496 206.065 437.476 203.487C434.859 205.518 433.189 206.534 432.466 206.534C431.685 206.534 431.006 206.241 430.43 205.655C429.854 205.069 429.566 204.395 429.566 203.633C429.566 202.715 430.406 201.602 432.086 200.293C433.14 199.551 434.634 198.36 436.568 196.719C438.287 194.981 439.927 194.112 441.49 194.112C442.798 194.112 443.453 194.864 443.453 196.368C443.453 196.817 443.394 197.486 443.277 198.374C443.16 199.263 443.101 199.932 443.101 200.381C443.101 201.026 443.135 202.002 443.204 203.311C443.272 204.619 443.306 205.596 443.306 206.241C443.306 208.467 443.072 211.787 442.603 216.202C442.134 220.616 441.9 223.926 441.9 226.133C441.9 227.266 441.978 228.643 442.134 230.264C442.291 231.885 442.378 233.213 442.398 234.248L445.474 234.19C446.295 234.19 446.973 234.458 447.51 234.995C448.047 235.533 448.316 236.202 448.316 237.002C448.316 237.823 448.047 238.496 447.51 239.024C446.973 239.551 446.295 239.815 445.474 239.815Z" fill-rule="evenodd"/>
<path clip-path="url(#TextBounds)" d="M505.621 240.928C499.683 240.928 495.347 238.213 492.613 232.784C490.543 228.604 489.507 223.164 489.507 216.465C489.507 210.801 490.855 205.86 493.55 201.641C496.734 196.7 501.06 194.229 506.529 194.229C511.666 194.229 515.67 196.416 518.541 200.791C521.021 204.58 522.261 209.2 522.261 214.649C522.261 223.399 520.875 229.966 518.101 234.351C515.328 238.736 511.168 240.928 505.621 240.928ZM506.5 199.883C502.867 199.883 499.986 201.729 497.857 205.42C496.08 208.506 495.191 212.032 495.191 215.996C495.191 222.422 496.06 227.246 497.798 230.469C499.537 233.692 502.144 235.303 505.621 235.303C509.761 235.303 512.73 232.94 514.527 228.213C515.777 224.932 516.402 220.772 516.402 215.733C516.402 210.44 515.577 206.475 513.926 203.838C512.276 201.202 509.8 199.883 506.5 199.883Z" fill-rule="evenodd"/>
<path clip-path="url(#TextBounds)" d="M562.896 239.815L557.066 239.815L551.265 239.785C549.898 239.785 548.941 239.698 548.394 239.522C547.398 239.17 546.9 238.428 546.9 237.295C546.9 235.323 548.433 234.336 551.5 234.336L552.906 234.366L554.107 234.424C554.107 233.487 554.024 232.1 553.858 230.264C553.692 228.428 553.609 227.051 553.609 226.133C553.609 223.653 553.834 219.883 554.283 214.825C554.712 209.844 554.918 206.065 554.898 203.487C552.281 205.518 550.611 206.534 549.888 206.534C549.107 206.534 548.428 206.241 547.852 205.655C547.276 205.069 546.988 204.395 546.988 203.633C546.988 202.715 547.828 201.602 549.507 200.293C550.562 199.551 552.056 198.36 553.99 196.719C555.709 194.981 557.349 194.112 558.912 194.112C560.22 194.112 560.875 194.864 560.875 196.368C560.875 196.817 560.816 197.486 560.699 198.374C560.582 199.263 560.523 199.932 560.523 200.381C560.523 201.026 560.557 202.002 560.626 203.311C560.694 204.619 560.728 205.596 560.728 206.241C560.728 208.467 560.494 211.787 560.025 216.202C559.556 220.616 559.322 223.926 559.322 226.133C559.322 227.266 559.4 228.643 559.556 230.264C559.712 231.885 559.8 233.213 559.82 234.248L562.896 234.19C563.716 234.19 564.395 234.458 564.932 234.995C565.469 235.533 565.738 236.202 565.738 237.002C565.738 237.823 565.469 238.496 564.932 239.024C564.395 239.551 563.716 239.815 562.896 239.815Z" fill-rule="evenodd"/>
<path clip-path="url(#TextBounds)" d="M605.113 240.928C599.175 240.928 594.839 238.213 592.105 232.784C590.035 228.604 589 223.164 589 216.465C589 210.801 590.347 205.86 593.043 201.641C596.226 196.7 600.552 194.229 606.021 194.229C611.158 194.229 615.162 196.416 618.033 200.791C620.513 204.58 621.753 209.2 621.753 214.649C621.753 223.399 620.367 229.966 617.593 234.351C614.82 238.736 610.66 240.928 605.113 240.928ZM605.992 199.883C602.359 199.883 599.478 201.729 597.349 205.42C595.572 208.506 594.683 212.032 594.683 215.996C594.683 222.422 595.552 227.246 597.291 230.469C599.029 233.692 601.636 235.303 605.113 235.303C609.253 235.303 612.222 232.94 614.019 228.213C615.269 224.932 615.894 220.772 615.894 215.733C615.894 210.44 615.069 206.475 613.419 203.838C611.768 201.202 609.293 199.883 605.992 199.883Z" fill-rule="evenodd"/>
<path clip-path="url(#TextBounds)" d="M662.388 239.815L656.558 239.815L650.757 239.785C649.39 239.785 648.433 239.698 647.886 239.522C646.89 239.17 646.392 238.428 646.392 237.295C646.392 235.323 647.925 234.336 650.992 234.336L652.398 234.366L653.599 234.424C653.599 233.487 653.516 232.1 653.35 230.264C653.184 228.428 653.101 227.051 653.101 226.133C653.101 223.653 653.326 219.883 653.775 214.825C654.205 209.844 654.41 206.065 654.39 203.487C651.773 205.518 650.103 206.534 649.38 206.534C648.599 206.534 647.92 206.241 647.344 205.655C646.768 205.069 646.48 204.395 646.48 203.633C646.48 202.715 647.32 201.602 649 200.293C650.054 199.551 651.548 198.36 653.482 196.719C655.201 194.981 656.841 194.112 658.404 194.112C659.712 194.112 660.367 194.864 660.367 196.368C660.367 196.817 660.308 197.486 660.191 198.374C660.074 199.263 660.015 199.932 660.015 200.381C660.015 201.026 660.049 202.002 660.118 203.311C660.186 204.619 660.22 205.596 660.22 206.241C660.22 208.467 659.986 211.787 659.517 216.202C659.048 220.616 658.814 223.926 658.814 226.133C658.814 227.266 658.892 228.643 659.048 230.264C659.205 231.885 659.293 233.213 659.312 234.248L662.388 234.19C663.209 234.19 663.887 234.458 664.424 234.995C664.961 235.533 665.23 236.202 665.23 237.002C665.23 237.823 664.961 238.496 664.424 239.024C663.887 239.551 663.209 239.815 662.388 239.815Z" fill-rule="evenodd"/>
<path clip-path="url(#TextBounds)" d="M189.214 323.928C183.277 323.928 178.941 321.213 176.207 315.784C174.136 311.604 173.101 306.164 173.101 299.465C173.101 293.801 174.449 288.86 177.144 284.641C180.328 279.7 184.654 277.229 190.123 277.229C195.259 277.229 199.263 279.416 202.134 283.791C204.615 287.58 205.855 292.2 205.855 297.649C205.855 306.399 204.468 312.966 201.695 317.351C198.921 321.736 194.761 323.928 189.214 323.928ZM190.093 282.883C186.461 282.883 183.58 284.729 181.451 288.42C179.673 291.506 178.785 295.032 178.785 298.996C178.785 305.422 179.654 310.246 181.392 313.469C183.13 316.692 185.738 318.303 189.214 318.303C193.355 318.303 196.324 315.94 198.121 311.213C199.371 307.932 199.996 303.772 199.996 298.733C199.996 293.44 199.17 289.475 197.52 286.838C195.87 284.202 193.394 282.883 190.093 282.883Z" fill-rule="evenodd"/>
<path clip-path="url(#TextBounds)" d="M246.49 322.815L240.66 322.815L234.859 322.785C233.492 322.785 232.535 322.698 231.988 322.522C230.992 322.17 230.494 321.428 230.494 320.295C230.494 318.323 232.027 317.336 235.093 317.336L236.5 317.366L237.701 317.424C237.701 316.487 237.618 315.1 237.452 313.264C237.286 311.428 237.203 310.051 237.203 309.133C237.203 306.653 237.427 302.883 237.877 297.825C238.306 292.844 238.511 289.065 238.492 286.487C235.875 288.518 234.205 289.534 233.482 289.534C232.701 289.534 232.022 289.241 231.446 288.655C230.87 288.069 230.582 287.395 230.582 286.633C230.582 285.715 231.421 284.602 233.101 283.293C234.156 282.551 235.65 281.36 237.584 279.719C239.302 277.981 240.943 277.112 242.505 277.112C243.814 277.112 244.468 277.864 244.468 279.368C244.468 279.817 244.41 280.486 244.293 281.374C244.175 282.263 244.117 282.932 244.117 283.381C244.117 284.026 244.151 285.002 244.219 286.311C244.288 287.619 244.322 288.596 244.322 289.241C244.322 291.467 244.087 294.787 243.619 299.202C243.15 303.616 242.916 306.926 242.916 309.133C242.916 310.266 242.994 311.643 243.15 313.264C243.306 314.885 243.394 316.213 243.414 317.248L246.49 317.19C247.31 317.19 247.989 317.458 248.526 317.995C249.063 318.533 249.332 319.202 249.332 320.002C249.332 320.823 249.063 321.496 248.526 322.024C247.989 322.551 247.31 322.815 246.49 322.815Z" fill-rule="evenodd"/>
<path clip-path="url(#TextBounds)" d="M288.707 323.928C282.769 323.928 278.433 321.213 275.699 315.784C273.628 311.604 272.593 306.164 272.593 299.465C272.593 293.801 273.941 288.86 276.636 284.641C279.82 279.7 284.146 277.229 289.615 277.229C294.752 277.229 298.755 279.416 301.627 283.791C304.107 287.58 305.347 292.2 305.347 297.649C305.347 306.399 303.961 312.966 301.187 317.351C298.414 321.736 294.253 323.928 288.707 323.928ZM289.586 282.883C285.953 282.883 283.072 284.729 280.943 288.42C279.166 291.506 278.277 295.032 278.277 298.996C278.277 305.422 279.146 310.246 280.884 313.469C282.623 316.692 285.23 318.303 288.707 318.303C292.847 318.303 295.816 315.94 297.613 311.213C298.863 307.932 299.488 303.772 299.488 298.733C299.488 293.44 298.663 289.475 297.012 286.838C295.362 284.202 292.886 282.883 289.586 282.883Z" fill-rule="evenodd"/>
<path clip-path="url(#TextBounds)" d="M345.982 322.815L340.152 322.815L334.351 322.785C332.984 322.785 332.027 322.698 331.48 322.522C330.484 322.17 329.986 321.428 329.986 320.295C329.986 318.323 331.519 317.336 334.586 317.336L335.992 317.366L337.193 317.424C337.193 316.487 337.11 315.1 336.944 313.264C336.778 311.428 336.695 310.051 336.695 309.133C336.695 306.653 336.92 302.883 337.369 297.825C337.798 292.844 338.003 289.065 337.984 286.487C335.367 288.518 333.697 289.534 332.974 289.534C332.193 289.534 331.514 289.241 330.938 288.655C330.362 288.069 330.074 287.395 330.074 286.633C330.074 285.715 330.914 284.602 332.593 283.293C333.648 282.551 335.142 281.36 337.076 279.719C338.795 277.981 340.435 277.112 341.998 277.112C343.306 277.112 343.961 277.864 343.961 279.368C343.961 279.817 343.902 280.486 343.785 281.374C343.668 282.263 343.609 282.932 343.609 283.381C343.609 284.026 343.643 285.002 343.711 286.311C343.78 287.619 343.814 288.596 343.814 289.241C343.814 291.467 343.58 294.787 343.111 299.202C342.642 303.616 342.408 306.926 342.408 309.133C342.408 310.266 342.486 311.643 342.642 313.264C342.798 314.885 342.886 316.213 342.906 317.248L345.982 317.19C346.802 317.19 347.481 317.458 348.018 317.995C348.555 318.533 348.824 319.202 348.824 320.002C348.824 320.823 348.555 321.496 348.018 322.024C347.481 322.551 346.802 322.815 345.982 322.815Z" fill-rule="evenodd"/>
<path clip-path="url(#TextBounds)" d="M388.199 323.928C382.261 323.928 377.925 321.213 375.191 315.784C373.121 311.604 372.086 306.164 372.086 299.465C372.086 293.801 373.433 288.86 376.128 284.641C379.312 279.7 383.638 277.229 389.107 277.229C394.244 277.229 398.248 279.416 401.119 283.791C403.599 287.58 404.839 292.2 404.839 297.649C404.839 306.399 403.453 312.966 400.679 317.351C397.906 321.736 393.746 323.928 388.199 323.928ZM389.078 282.883C385.445 282.883 382.564 284.729 380.435 288.42C378.658 291.506 377.769 295.032 377.769 298.996C377.769 305.422 378.638 310.246 380.377 313.469C382.115 316.692 384.722 318.303 388.199 318.303C392.339 318.303 395.308 315.94 397.105 311.213C398.355 307.932 398.98 303.772 398.98 298.733C398.98 293.44 398.155 289.475 396.504 286.838C394.854 284.202 392.378 282.883 389.078 282.883Z" fill-rule="evenodd"/>
<path clip-path="url(#TextBounds)" d="M445.474 322.815L439.644 322.815L433.843 322.785C432.476 322.785 431.519 322.698 430.972 322.522C429.976 322.17 429.478 321.428 429.478 320.295C429.478 318.323 431.011 317.336 434.078 317.336L435.484 317.366L436.685 317.424C436.685 316.487 436.602 315.1 436.436 313.264C436.27 311.428 436.187 310.051 436.187 309.133C436.187 306.653 436.412 302.883 436.861 297.825C437.291 292.844 437.496 289.065 437.476 286.487C434.859 288.518 433.189 289.534 432.466 289.534C431.685 289.534 431.006 289.241 430.43 288.655C429.854 288.069 429.566 287.395 429.566 286.633C429.566 285.715 430.406 284.602 432.086 283.293C433.14 282.551 434.634 281.36 436.568 279.719C438.287 277.981 439.927 277.112 441.49 277.112C442.798 277.112 443.453 277.864 443.453 279.368C443.453 279.817 443.394 280.486 443.277 281.374C443.16 282.263 443.101 282.932 443.101 283.381C443.101 284.026 443.135 285.002 443.204 286.311C443.272 287.619 443.306 288.596 443.306 289.241C443.306 291.467 443.072 294.787 442.603 299.202C442.134 303.616 441.9 306.926 441.9 309.133C441.9 310.266 441.978 311.643 442.134 313.264C442.291 314.885 442.378 316.213 442.398 317.248L445.474 317.19C446.295 317.19 446.973 317.458 447.51 317.995C448.047 318.533 448.316 319.202 448.316 320.002C448.316 320.823 448.047 321.496 447.51 322.024C446.973 322.551 446.295 322.815 445.474 322.815Z" fill-rule="evenodd"/>
<path clip-path="url(#TextBounds)" d="M505.621 323.928C499.683 323.928 495.347 321.213 492.613 315.784C490.543 311.604 489.507 306.164 489.507 299.465C489.507 293.801 490.855 288.86 493.55 284.641C496.734 279.7 501.06 277.229 506.529 277.229C511.666 277.229 515.67 279.416 518.541 283.791C521.021 287.58 522.261 292.2 522.261 297.649C522.261 306.399 520.875 312.966 518.101 317.351C515.328 321.736 511.168 323.928 505.621 323.928ZM506.5 282.883C502.867 282.883 499.986 284.729 497.857 288.42C496.08 291.506 495.191 295.032 495.191 298.996C495.191 305.422 496.06 310.246 497.798 313.469C499.537 316.692 502.144 318.303 505.621 318.303C509.761 318.303 512.73 315.94 514.527 311.213C515.777 307.932 516.402 303.772 516.402 298.733C516.402 293.44 515.577 289.475 513.926 286.838C512.276 284.202 509.8 282.883 506.5 282.883Z" fill-rule="evenodd"/>
<path clip-path="url(#TextBounds)" d="M562.896 322.815L557.066 322.815L551.265 322.785C549.898 322.785 548.941 322.698 548.394 322.522C547.398 322.17 546.9 321.428 546.9 320.295C546.9 318.323 548.433 317.336 551.5 317.336L552.906 317.366L554.107 317.424C554.107 316.487 554.024 315.1 553.858 313.264C553.692 311.428 553.609 310.051 553.609 309.133C553.609 306.653 553.834 302.883 554.283 297.825C554.712 292.844 554.918 289.065 554.898 286.487C552.281 288.518 550.611 289.534 549.888 289.534C549.107 289.534 548.428 289.241 547.852 288.655C547.276 288.069 546.988 287.395 546.988 286.633C546.988 285.715 547.828 284.602 549.507 283.293C550.562 282.551 552.056 281.36 553.99 279.719C555.709 277.981 557.349 277.112 558.912 277.112C560.22 277.112 560.875 277.864 560.875 279.368C560.875 279.817 560.816 280.486 560.699 281.374C560.582 282.263 560.523 282.932 560.523 283.381C560.523 284.026 560.557 285.002 560.626 286.311C560.694 287.619 560.728 288.596 560.728 289.241C560.728 291.467 560.494 294.787 560.025 299.202C559.556 303.616 559.322 306.926 559.322 309.133C559.322 310.266 559.4 311.643 559.556 313.264C559.712 314.885 559.8 316.213 559.82 317.248L562.896 317.19C563.716 317.19 564.395 317.458 564.932 317.995C565.469 318.533 565.738 319.202 565.738 320.002C565.738 320.823 565.469 321.496 564.932 322.024C564.395 322.551 563.716 322.815 562.896 322.815Z" fill-rule="evenodd"/>
<path clip-path="url(#TextBounds)" d="M605.113 323.928C599.175 323.928 594.839 321.213 592.105 315.784C590.035 311.604 589 306.164 589 299.465C589 293.801 590.347 288.86 593.043 284.641C596.226 279.7 600.552 277.229 606.021 277.229C611.158 277.229 615.162 279.416 618.033 283.791C620.513 287.58 621.753 292.2 621.753 297.649C621.753 306.399 620.367 312.966 617.593 317.351C614.82 321.736 610.66 323.928 605.113 323.928ZM605.992 282.883C602.359 282.883 599.478 284.729 597.349 288.42C595.572 291.506 594.683 295.032 594.683 298.996C594.683 305.422 595.552 310.246 597.291 313.469C599.029 316.692 601.636 318.303 605.113 318.303C609.253 318.303 612.222 315.94 614.019 311.213C615.269 307.932 615.894 303.772 615.894 298.733C615.894 293.44 615.069 289.475 613.419 286.838C611.768 284.202 609.293 282.883 605.992 282.883Z" fill-rule="evenodd"/>
<path clip-path="url(#TextBounds)" d="M662.388 322.815L656.558 322.815L650.757 322.785C649.39 322.785 648.433 322.698 647.886 322.522C646.89 322.17 646.392 321.428 646.392 320.295C646.392 318.323 647.925 317.336 650.992 317.336L652.398 317.366L653.599 317.424C653.599 316.487 653.516 315.1 653.35 313.264C653.184 311.428 653.101 310.051 653.101 309.133C653.101 306.653 653.326 302.883 653.775 297.825C654.205 292.844 654.41 289.065 654.39 286.487C651.773 288.518 650.103 289.534 649.38 289.534C648.599 289.534 647.92 289.241 647.344 288.655C646.768 288.069 646.48 287.395 646.48 286.633C646.48 285.715 647.32 284.602 649 283.293C650.054 282.551 651.548 281.36 653.482 279.719C655.201 277.981 656.841 277.112 658.404 277.112C659.712 277.112 660.367 277.864 660.367 279.368C660.367 279.817 660.308 280.486 660.191 281.374C660.074 282.263 660.015 282.932 660.015 283.381C660.015 284.026 660.049 285.002 660.118 286.311C660.186 287.619 660.22 288.596 660.22 289.241C660.22 291.467 659.986 294.787 659.517 299.202C659.048 303.616 658.814 306.926 658.814 309.133C658.814 310.266 658.892 311.643 659.048 313.264C659.205 314.885 659.293 316.213 659.312 317.248L662.388 317.19C663.209 317.19 663.887 317.458 664.424 317.995C664.961 318.533 665.23 319.202 665.23 320.002C665.23 320.823 664.961 321.496 664.424 322.024C663.887 322.551 663.209 322.815 662.388 322.815Z" fill-rule="evenodd"/>
<path clip-path="url(#TextBounds)" d="M189.214 406.928C183.277 406.928 178.941 404.213 176.207 398.784C174.136 394.604 173.101 389.164 173.101 382.465C173.101 376.801 174.449 371.86 177.144 367.641C180.328 362.7 184.654 360.229 190.123 360.229C195.259 360.229 199.263 362.416 202.134 366.791C204.615 370.58 205.855 375.2 205.855 380.649C205.855 389.399 204.468 395.966 201.695 400.351C198.921 404.736 194.761 406.928 189.214 406.928ZM190.093 365.883C186.461 365.883 183.58 367.729 181.451 371.42C179.673 374.506 178.785 378.032 178.785 381.996C178.785 388.422 179.654 393.246 181.392 396.469C183.13 399.692 185.738 401.303 189.214 401.303C193.355 401.303 196.324 398.94 198.121 394.213C199.371 390.932 199.996 386.772 199.996 381.733C199.996 376.44 199.17 372.475 197.52 369.838C195.87 367.202 193.394 365.883 190.093 365.883Z" fill-rule="evenodd"/>
<path clip-path="url(#TextBounds)" d="M246.49 405.815L240.66 405.815L234.859 405.785C233.492 405.785 232.535 405.698 231.988 405.522C230.992 405.17 230.494 404.428 230.494 403.295C230.494 401.323 232.027 400.336 235.093 400.336L236.5 400.366L237.701 400.424C237.701 399.487 237.618 398.1 237.452 396.264C237.286 394.428 237.203 393.051 237.203 392.133C237.203 389.653 237.427 385.883 237.877 380.825C238.306 375.844 238.511 372.065 238.492 369.487C235.875 371.518 234.205 372.534 233.482 372.534C232.701 372.534 232.022 372.241 231.446 371.655C230.87 371.069 230.582 370.395 230.582 369.633C230.582 368.715 231.421 367.602 233.101 366.293C234.156 365.551 235.65 364.36 237.584 362.719C239.302 360.981 240.943 360.112 242.505 360.112C243.814 360.112 244.468 360.864 244.468 362.368C244.468 362.817 244.41 363.486 244.293 364.374C244.175 365.263 244.117 365.932 244.117 366.381C244.117 367.026 244.151 368.002 244.219 369.311C244.288 370.619 244.322 371.596 244.322 372.241C244.322 374.467 244.087 377.787 243.619 382.202C243.15 386.616 242.916 389.926 242.916 392.133C242.916 393.266 242.994 394.643 243.15 396.264C243.306 397.885 243.394 399.213 243.414 400.248L246.49 400.19C247.31 400.19 247.989 400.458 248.526 400.995C249.063 401.533 249.332 402.202 249.332 403.002C249.332 403.823 249.063 404.496 248.526 405.024C247.989 405.551 247.31 405.815 246.49 405.815Z" fill-rule="evenodd"/>
<path clip-path="url(#TextBounds)" d="M288.707 406.928C282.769 406.928 278.433 404.213 275.699 398.784C273.628 394.604 272.593 389.164 272.593 382.465C272.593 376.801 273.941 371.86 276.636 367.641C279.82 362.7 284.146 360.229 289.615 360.229C294.752 360.229 298.755 362.416 301.627 366.791C304.107 370.58 305.347 375.2 305.347 380.649C305.347 389.399 303.961 395.966 301.187 400.351C298.414 404.736 294.253 406.928 288.707 406.928ZM289.586 365.883C285.953 365.883 283.072 367.729 280.943 371.42C279.166 374.506 278.277 378.032 278.277 381.996C278.277 388.422 279.146 393.246 280.884 396.469C282.623 399.692 285.23 401.303 288.707 401.303C292.847 401.303 295.816 398.94 297.613 394.213C298.863 390.932 299.488 386.772 299.488 381.733C299.488 376.44 298.663 372.475 297.012 369.838C295.362 367.202 292.886 365.883 289.586 365.883Z" fill-rule="evenodd"/>
<path clip-path="url(#TextBounds)" d="M345.982 405.815L340.152 405.815L334.351 405.785C332.984 405.785 332.027 405.698 331.48 405.522C330.484 405.17 329.986 404.428 329.986 403.295C329.986 401.323 331.519 400.336 334.586 400.336L335.992 400.366L337.193 400.424C337.193 399.487 337.11 398.1 336.944 396.264C336.778 394.428 336.695 393.051 336.695 392.133C336.695 389.653 336.92 385.883 337.369 380.825C337.798 375.844 338.003 372.065 337.984 369.487C335.367 371.518 333.697 372.534 332.974 372.534C332.193 372.534 331.514 372.241 330.938 371.655C330.362 371.069 330.074 370.395 330.074 369.633C330.074 368.715 330.914 367.602 332.593 366.293C333.648 365.551 335.142 364.36 337.076 362.719C338.795 360.981 340.435 360.112 341.998 360.112C343.306 360.112 343.961 360.864 343.961 362.368C343.961 362.817 343.902 363.486 343.785 364.374C343.668 365.263 343.609 365.932 343.609 366.381C343.609 367.026 343.643 368.002 343.711 369.311C343.78 370.619 343.814 371.596 343.814 372.241C343.814 374.467 343.58 377.787 343.111 382.202C342.642 386.616 342.408 389.926 342.408 392.133C342.408 393.266 342.486 394.643 342.642 396.264C342.798 397.885 342.886 399.213 342.906 400.248L345.982 400.19C346.802 400.19 347.481 400.458 348.018 400.995C348.555 401.533 348.824 402.202 348.824 403.002C348.824 403.823 348.555 404.496 348.018 405.024C347.481 405.551 346.802 405.815 345.982 405.815Z" fill-rule="evenodd"/>
<path clip-path="url(#TextBounds)" d="M388.199 406.928C382.261 406.928 377.925 404.213 375.191 398.784C373.121 394.604 372.086 389.164 372.086 382.465C372.086 376.801 373.433 371.86 376.128 367.641C379.312 362.7 383.638 360.229 389.107 360.229C394.244 360.229 398.248 362.416 401.119 366.791C403.599 370.58 404.839 375.2 404.839 380.649C404.839 389.399 403.453 395.966 400.679 400.351C397.906 404.736 393.746 406.928 388.199 406.928ZM389.078 365.883C385.445 365.883 382.564 367.729 380.435 371.42C378.658 374.506 377.769 378.032 377.769 381.996C377.769 388.422 378.638 393.246 380.377 396.469C382.115 399.692 384.722 401.303 388.199 401.303C392.339 401.303 395.308 398.94 397.105 394.213C398.355 390.932 398.98 386.772 398.98 381.733C398.98 376.44 398.155 372.475 396.504 369.838C394.854 367.202 392.378 365.883 389.078 365.883Z" fill-rule="evenodd"/>
<path clip-path="url(#TextBounds)" d="M445.474 405.815L439.644 405.815L433.843 405.785C432.476 405.785 431.519 405.698 430.972 405.522C429.976 405.17 429.478 404.428 429.478 403.295C429.478 401.323 431.011 400.336 434.078 400.336L435.484 400.366L436.685 400.424C436.685 399.487 436.602 398.1 436.436 396.264C436.27 394.428 436.187 393.051 436.187 392.133C436.187 389.653 436.412 385.883 436.861 380.825C437.291 375.844 437.496 372.065 437.476 369.487C434.859 371.518 433.189 372.534 432.466 372.534C431.685 372.534 431.006 372.241 430.43 371.655C429.854 371.069 429.566 370.395 429.566 369.633C429.566 368.715 430.406 367.602 432.086 366.293C433.14 365.551 434.634 364.36 436.568 362.719C438.287 360.981 439.927 360.112 441.49 360.112C442.798 360.112 443.453 360.864 443.453 362.368C443.453 362.817 443.394 363.486 443.277 364.374C443.16 365.263 443.101 365.932 443.101 366.381C443.101 367.026 443.135 368.002 443.204 369.311C443.272 370.619 443.306 371.596 443.306 372.241C443.306 374.467 443.072 377.787 442.603 382.202C442.134 386.616 441.9 389.926 441.9 392.133C441.9 393.266 441.978 394.643 442.134 396.264C442.291 397.885 442.378 399.213 442.398 400.248L445.474 400.19C446.295 400.19 446.973 400.458 447.51 400.995C448.047 401.533 448.316 402.202 448.316 403.002C448.316 403.823 448.047 404.496 447.51 405.024C446.973 405.551 446.295 405.815 445.474 405.815Z" fill-rule="evenodd"/>
<path clip-path="url(#TextBounds)" d="M505.621 406.928C499.683 406.928 495.347 404.213 492.613 398.784C490.543 394.604 489.507 389.164 489.507 382.465C489.507 376.801 490.855 371.86 493.55 367.641C496.734 362.7 501.06 360.229 506.529 360.229C511.666 360.229 515.67 362.416 518.541 366.791C521.021 370.58 522.261 375.2 522.261 380.649C522.261 389.399 520.875 395.966 518.101 400.351C515.328 404.736 511.168 406.928 505.621 406.928ZM506.5 365.883C502.867 365.883 499.986 367.729 497.857 371.42C496.08 374.506 495.191 378.032 495.191 381.996C495.191 388.422 496.06 393.246 497.798 396.469C499.537 399.692 502.144 401.303 505.621 401.303C509.761 401.303 512.73 398.94 514.527 394.213C515.777 390.932 516.402 386.772 516.402 381.733C516.402 376.44 515.577 372.475 513.926 369.838C512.276 367.202 509.8 365.883 506.5 365.883Z" fill-rule="evenodd"/>
<path clip-path="url(#TextBounds)" d="M562.896 405.815L557.066 405.815L551.265 405.785C549.898 405.785 548.941 405.698 548.394 405.522C547.398 405.17 546.9 404.428 546.9 403.295C546.9 401.323 548.433 400.336 551.5 400.336L552.906 400.366L554.107 400.424C554.107 399.487 554.024 398.1 553.858 396.264C553.692 394.428 553.609 393.051 553.609 392.133C553.609 389.653 553.834 385.883 554.283 380.825C554.712 375.844 554.918 372.065 554.898 369.487C552.281 371.518 550.611 372.534 549.888 372.534C549.107 372.534 548.428 372.241 547.852 371.655C547.276 371.069 546.988 370.395 546.988 369.633C546.988 368.715 547.828 367.602 549.507 366.293C550.562 365.551 552.056 364.36 553.99 362.719C555.709 360.981 557.349 360.112 558.912 360.112C560.22 360.112 560.875 360.864 560.875 362.368C560.875 362.817 560.816 363.486 560.699 364.374C560.582 365.263 560.523 365.932 560.523 366.381C560.523 367.026 560.557 368.002 560.626 369.311C560.694 370.619 560.728 371.596 560.728 372.241C560.728 374.467 560.494 377.787 560.025 382.202C559.556 386.616 559.322 389.926 559.322 392.133C559.322 393.266 559.4 394.643 559.556 396.264C559.712 397.885 559.8 399.213 559.82 400.248L562.896 400.19C563.716 400.19 564.395 400.458 564.932 400.995C565.469 401.533 565.738 402.202 565.738 403.002C565.738 403.823 565.469 404.496 564.932 405.024C564.395 405.551 563.716 405.815 562.896 405.815Z" fill-rule="evenodd"/>
<path clip-path="url(#TextBounds)" d="M605.113 406.928C599.175 406.928 594.839 404.213 592.105 398.784C590.035 394.604 589 389.164 589 382.465C589 376.801 590.347 371.86 593.043 367.641C596.226 362.7 600.552 360.229 606.021 360.229C611.158 360.229 615.162 362.416 618.033 366.791C620.513 370.58 621.753 375.2 621.753 380.649C621.753 389.399 620.367 395.966 617.593 400.351C614.82 404.736 610.66 406.928 605.113 406.928ZM605.992 365.883C602.359 365.883 599.478 367.729 597.349 371.42C595.572 374.506 594.683 378.032 594.683 381.996C594.683 388.422 595.552 393.246 597.291 396.469C599.029 399.692 601.636 401.303 605.113 401.303C609.253 401.303 612.222 398.94 614.019 394.213C615.269 390.932 615.894 386.772 615.894 381.733C615.894 376.44 615.069 372.475 613.419 369.838C611.768 367.202 609.293 365.883 605.992 365.883Z" fill-rule="evenodd"/>
<path clip-path="url(#TextBounds)" d="M662.388 405.815L656.558 405.815L650.757 405.785C649.39 405.785 648.433 405.698 647.886 405.522C646.89 405.17 646.392 404.428 646.392 403.295C646.392 401.323 647.925 400.336 650.992 400.336L652.398 400.366L653.599 400.424C653.599 399.487 653.516 398.1 653.35 396.264C653.184 394.428 653.101 393.051 653.101 392.133C653.101 389.653 653.326 385.883 653.775 380.825C654.205 375.844 654.41 372.065 654.39 369.487C651.773 371.518 650.103 372.534 649.38 372.534C648.599 372.534 647.92 372.241 647.344 371.655C646.768 371.069 646.48 370.395 646.48 369.633C646.48 368.715 647.32 367.602 649 366.293C650.054 365.551 651.548 364.36 653.482 362.719C655.201 360.981 656.841 360.112 658.404 360.112C659.712 360.112 660.367 360.864 660.367 362.368C660.367 362.817 660.308 363.486 660.191 364.374C660.074 365.263 660.015 365.932 660.015 366.381C660.015 367.026 660.049 368.002 660.118 369.311C660.186 370.619 660.22 371.596 660.22 372.241C660.22 374.467 659.986 377.787 659.517 382.202C659.048 386.616 658.814 389.926 658.814 392.133C658.814 393.266 658.892 394.643 659.048 396.264C659.205 397.885 659.293 399.213 659.312 400.248L662.388 400.19C663.209 400.19 663.887 400.458 664.424 400.995C664.961 401.533 665.23 402.202 665.23 403.002C665.23 403.823 664.961 404.496 664.424 405.024C663.887 405.551 663.209 405.815 662.388 405.815Z" fill-rule="evenodd"/>
<path clip-path="url(#TextBounds)" d="M189.214 489.928C183.277 489.928 178.941 487.213 176.207 481.784C174.136 477.604 173.101 472.164 173.101 465.465C173.101 459.801 174.449 454.86 177.144 450.641C180.328 445.7 184.654 443.229 190.123 443.229C195.259 443.229 199.263 445.416 202.134 449.791C204.615 453.58 205.855 458.2 205.855 463.649C205.855 472.399 204.468 478.966 201.695 483.351C198.921 487.736 194.761 489.928 189.214 489.928ZM190.093 448.883C186.461 448.883 183.58 450.729 181.451 454.42C179.673 457.506 178.785 461.032 178.785 464.996C178.785 471.422 179.654 476.246 181.392 479.469C183.13 482.692 185.738 484.303 189.214 484.303C193.355 484.303 196.324 481.94 198.121 477.213C199.371 473.932 199.996 469.772 199.996 464.733C199.996 459.44 199.17 455.475 197.52 452.838C195.87 450.202 193.394 448.883 190.093 448.883Z" fill-rule="evenodd"/>
<path clip-path="url(#TextBounds)" d="M246.49 488.815L240.66 488.815L234.859 488.785C233.492 488.785 232.535 488.698 231.988 488.522C230.992 488.17 230.494 487.428 230.494 486.295C230.494 484.323 232.027 483.336 235.093 483.336L236.5 483.366L237.701 483.424C237.701 482.487 237.618 481.1 237.452 479.264C237.286 477.428 237.203 476.051 237.203 475.133C237.203 472.653 237.427 468.883 237.877 463.825C238.306 458.844 238.511 455.065 238.492 452.487C235.875 454.518 234.205 455.534 233.482 455.534C232.701 455.534 232.022 455.241 231.446 454.655C230.87 454.069 230.582 453.395 230.582 452.633C230.582 451.715 231.421 450.602 233.101 449.293C234.156 448.551 235.65 447.36 237.584 445.719C239.302 443.981 240.943 443.112 242.505 443.112C243.814 443.112 244.468 443.864 244.468 445.368C244.468 445.817 244.41 446.486 244.293 447.374C244.175 448.263 244.117 448.932 244.117 449.381C244.117 450.026 244.151 451.002 244.219 452.311C244.288 453.619 244.322 454.596 244.322 455.241C244.322 457.467 244.087 460.787 243.619 465.202C243.15 469.616 242.916 472.926 242.916 475.133C242.916 476.266 242.994 477.643 243.15 479.264C243.306 480.885 243.394 482.213 243.414 483.248L246.49 483.19C247.31 483.19 247.989 483.458 248.526 483.995C249.063 484.533 249.332 485.202 249.332 486.002C249.332 486.823 249.063 487.496 248.526 488.024C247.989 488.551 247.31 488.815 246.49 488.815Z" fill-rule="evenodd"/>
<path clip-path="url(#TextBounds)" d="M288.707 489.928C282.769 489.928 278.433 487.213 275.699 481.784C273.628 477.604 272.593 472.164 272.593 465.465C272.593 459.801 273.941 454.86 276.636 450.641C279.82 445.7 284.146 443.229 289.615 443.229C294.752 443.229 298.755 445.416 301.627 449.791C304.107 453.58 305.347 458.2 305.347 463.649C305.347 472.399 303.961 478.966 301.187 483.351C298.414 487.736 294.253 489.928 288.707 489.928ZM289.586 448.883C285.953 448.883 283.072 450.729 280.943 454.42C279.166 457.506 278.277 461.032 278.277 464.996C278.277 471.422 279.146 476.246 280.884 479.469C282.623 482.692 285.23 484.303 288.707 484.303C292.847 484.303 295.816 481.94 297.613 477.213C298.863 473.932 299.488 469.772 299.488 464.733C299.488 459.44 298.663 455.475 297.012 452.838C295.362 450.202 292.886 448.883 289.586 448.883Z" fill-rule="evenodd"/>
<path clip-path="url(#TextBounds)" d="M345.982 488.815L340.152 488.815L334.351 488.785C332.984 488.785 332.027 488.698 331.48 488.522C330.484 488.17 329.986 487.428 329.986 486.295C329.986 484.323 331.519 483.336 334.586 483.336L335.992 483.366L337.193 483.424C337.193 482.487 337.11 481.1 336.944 479.264C336.778 477.428 336.695 476.051 336.695 475.133C336.695 472.653 336.92 468.883 337.369 463.825C337.798 458.844 338.003 455.065 337.984 452.487C335.367 454.518 333.697 455.534 332.974 455.534C332.193 455.534 331.514 455.241 330.938 454.655C330.362 454.069 330.074 453.395 330.074 452.633C330.074 451.715 330.914 450.602 332.593 449.293C333.648 448.551 335.142 447.36 337.076 445.719C338.795 443.981 340.435 443.112 341.998 443.112C343.306 443.112 343.961 443.864 343.961 445.368C343.961 445.817 343.902 446.486 343.785 447.374C343.668 448.263 343.609 448.932 343.609 449.381C343.609 450.026 343.643 451.002 343.711 452.311C343.78 453.619 343.814 454.596 343.814 455.241C343.814 457.467 343.58 460.787 343.111 465.202C342.642 469.616 342.408 472.926 342.408 475.133C342.408 476.266 342.486 477.643 342.642 479.264C342.798 480.885 342.886 482.213 342.906 483.248L345.982 483.19C346.802 483.19 347.481 483.458 348.018 483.995C348.555 484.533 348.824 485.202 348.824 486.002C348.824 486.823 348.555 487.496 348.018 488.024C347.481 488.551 346.802 488.815 345.982 488.815Z" fill-rule="evenodd"/>
<path clip-path="url(#TextBounds)" d="M388.199 489.928C382.261 489.928 377.925 487.213 375.191 481.784C373.121 477.604 372.086 472.164 372.086 465.465C372.086 459.801 373.433 454.86 376.128 450.641C379.312 445.7 383.638 443.229 389.107 443.229C394.244 443.229 398.248 445.416 401.119 449.791C403.599 453.58 404.839 458.2 404.839 463.649C404.839 472.399 403.453 478.966 400.679 483.351C397.906 487.736 393.746 489.928 388.199 489.928ZM389.078 448.883C385.445 448.883 382.564 450.729 380.435 454.42C378.658 457.506 377.769 461.032 377.769 464.996C377.769 471.422 378.638 476.246 380.377 479.469C382.115 482.692 384.722 484.303 388.199 484.303C392.339 484.303 395.308 481.94 397.105 477.213C398.355 473.932 398.98 469.772 398.98 464.733C398.98 459.44 398.155 455.475 396.504 452.838C394.854 450.202 392.378 448.883 389.078 448.883Z" fill-rule="evenodd"/>
<path clip-path="url(#TextBounds)" d="M445.474 488.815L439.644 488.815L433.843 488.785C432.476 488.785 431.519 488.698 430.972 488.522C429.976 488.17 429.478 487.428 429.478 486.295C429.478 484.323 431.011 483.336 434.078 483.336L435.484 483.366L436.685 483.424C436.685 482.487 436.602 481.1 436.436 479.264C436.27 477.428 436.187 476.051 436.187 475.133C436.187 472.653 436.412 468.883 436.861 463.825C437.291 458.844 437.496 455.065 437.476 452.487C434.859 454.518 433.189 455.534 432.466 455.534C431.685 455.534 431.006 455.241 430.43 454.655C429.854 454.069 429.566 453.395 429.566 452.633C429.566 451.715 430.406 450.602 432.086 449.293C433.14 448.551 434.634 447.36 436.568 445.719C438.287 443.981 439.927 443.112 441.49 443.112C442.798 443.112 443.453 443.864 443.453 445.368C443.453 445.817 443.394 446.486 443.277 447.374C443.16 448.263 443.101 448.932 443.101 449.381C443.101 450.026 443.135 451.002 443.204 452.311C443.272 453.619 443.306 454.596 443.306 455.241C443.306 457.467 443.072 460.787 442.603 465.202C442.134 469.616 441.9 472.926 441.9 475.133C441.9 476.266 441.978 477.643 442.134 479.264C442.291 480.885 442.378 482.213 442.398 483.248L445.474 483.19C446.295 483.19 446.973 483.458 447.51 483.995C448.047 484.533 448.316 485.202 448.316 486.002C448.316 486.823 448.047 487.496 447.51 488.024C446.973 488.551 446.295 488.815 445.474 488.815Z" fill-rule="evenodd"/>
<path clip-path="url(#TextBounds)" d="M505.621 489.928C499.683 489.928 495.347 487.213 492.613 481.784C490.543 477.604 489.507 472.164 489.507 465.465C489.507 459.801 490.855 454.86 493.55 450.641C496.734 445.7 501.06 443.229 506.529 443.229C511.666 443.229 515.67 445.416 518.541 449.791C521.021 453.58 522.261 458.2 522.261 463.649C522.261 472.399 520.875 478.966 518.101 483.351C515.328 487.736 511.168 489.928 505.621 489.928ZM506.5 448.883C502.867 448.883 499.986 450.729 497.857 454.42C496.08 457.506 495.191 461.032 495.191 464.996C495.191 471.422 496.06 476.246 497.798 479.469C499.537 482.692 502.144 484.303 505.621 484.303C509.761 484.303 512.73 481.94 514.527 477.213C515.777 473.932 516.402 469.772 516.402 464.733C516.402 459.44 515.577 455.475 513.926 452.838C512.276 450.202 509.8 448.883 506.5 448.883Z" fill-rule="evenodd"/>
<path clip-path="url(#TextBounds)" d="M562.896 488.815L557.066 488.815L551.265 488.785C549.898 488.785 548.941 488.698 548.394 488.522C547.398 488.17 546.9 487.428 546.9 486.295C546.9 484.323 548.433 483.336 551.5 483.336L552.906 483.366L554.107 483.424C554.107 482.487 554.024 481.1 553.858 479.264C553.692 477.428 553.609 476.051 553.609 475.133C553.609 472.653 553.834 468.883 554.283 463.825C554.712 458.844 554.918 455.065 554.898 452.487C552.281 454.518 550.611 455.534 549.888 455.534C549.107 455.534 548.428 455.241 547.852 454.655C547.276 454.069 546.988 453.395 546.988 452.633C546.988 451.715 547.828 450.602 549.507 449.293C550.562 448.551 552.056 447.36 553.99 445.719C555.709 443.981 557.349 443.112 558.912 443.112C560.22 443.112 560.875 443.864 560.875 445.368C560.875 445.817 560.816 446.486 560.699 447.374C560.582 448.263 560.523 448.932 560.523 449.381C560.523 450.026 560.557 451.002 560.626 452.311C560.694 453.619 560.728 454.596 560.728 455.241C560.728 457.467 560.494 460.787 560.025 465.202C559.556 469.616 559.322 472.926 559.322 475.133C559.322 476.266 559.4 477.643 559.556 479.264C559.712 480.885 559.8 482.213 559.82 483.248L562.896 483.19C563.716 483.19 564.395 483.458 564.932 483.995C565.469 484.533 565.738 485.202 565.738 486.002C565.738 486.823 565.469 487.496 564.932 488.024C564.395 488.551 563.716 488.815 562.896 488.815Z" fill-rule="evenodd"/>
<path clip-path="url(#TextBounds)" d="M605.113 489.928C599.175 489.928 594.839 487.213 592.105 481.784C590.035 477.604 589 472.164 589 465.465C589 459.801 590.347 454.86 593.043 450.641C596.226 445.7 600.552 443.229 606.021 443.229C611.158 443.229 615.162 445.416 618.033 449.791C620.513 453.58 621.753 458.2 621.753 463.649C621.753 472.399 620.367 478.966 617.593 483.351C614.82 487.736 610.66 489.928 605.113 489.928ZM605.992 448.883C602.359 448.883 599.478 450.729 597.349 454.42C595.572 457.506 594.683 461.032 594.683 464.996C594.683 471.422 595.552 476.246 597.291 479.469C599.029 482.692 601.636 484.303 605.113 484.303C609.253 484.303 612.222 481.94 614.019 477.213C615.269 473.932 615.894 469.772 615.894 464.733C615.894 459.44 615.069 455.475 613.419 452.838C611.768 450.202 609.293 448.883 605.992 448.883Z" fill-rule="evenodd"/>
<path clip-path="url(#TextBounds)" d="M662.388 488.815L656.558 488.815L650.757 488.785C649.39 488.785 648.433 488.698 647.886 488.522C646.89 488.17 646.392 487.428 646.392 486.295C646.392 484.323 647.925 483.336 650.992 483.336L652.398 483.366L653.599 483.424C653.599 482.487 653.516 481.1 653.35 479.264C653.184 477.428 653.101 476.051 653.101 475.133C653.101 472.653 653.326 468.883 653.775 463.825C654.205 458.844 654.41 455.065 654.39 452.487C651.773 454.518 650.103 455.534 649.38 455.534C648.599 455.534 647.92 455.241 647.344 454.655C646.768 454.069 646.48 453.395 646.48 452.633C646.48 451.715 647.32 450.602 649 449.293C650.054 448.551 651.548 447.36 653.482 445.719C655.201 443.981 656.841 443.112 658.404 443.112C659.712 443.112 660.367 443.864 660.367 445.368C660.367 445.817 660.308 446.486 660.191 447.374C660.074 448.263 660.015 448.932 660.015 449.381C660.015 450.026 660.049 451.002 660.118 452.311C660.186 453.619 660.22 454.596 660.22 455.241C660.22 457.467 659.986 460.787 659.517 465.202C659.048 469.616 658.814 472.926 658.814 475.133C658.814 476.266 658.892 477.643 659.048 479.264C659.205 480.885 659.293 482.213 659.312 483.248L662.388 483.19C663.209 483.19 663.887 483.458 664.424 483.995C664.961 484.533 665.23 485.202 665.23 486.002C665.23 486.823 664.961 487.496 664.424 488.024C663.887 488.551 663.209 488.815 662.388 488.815Z" fill-rule="evenodd"/>
<path clip-path="url(#TextBounds)" d="M189.214 572.928C183.277 572.928 178.941 570.213 176.207 564.784C174.136 560.604 173.101 555.164 173.101 548.465C173.101 542.801 174.449 537.86 177.144 533.641C180.328 528.7 184.654 526.229 190.123 526.229C195.259 526.229 199.263 528.416 202.134 532.791C204.615 536.58 205.855 541.2 205.855 546.649C205.855 555.399 204.468 561.966 201.695 566.351C198.921 570.736 194.761 572.928 189.214 572.928ZM190.093 531.883C186.461 531.883 183.58 533.729 181.451 537.42C179.673 540.506 178.785 544.032 178.785 547.996C178.785 554.422 179.654 559.246 181.392 562.469C183.13 565.692 185.738 567.303 189.214 567.303C193.355 567.303 196.324 564.94 198.121 560.213C199.371 556.932 199.996 552.772 199.996 547.733C199.996 542.44 199.17 538.475 197.52 535.838C195.87 533.202 193.394 531.883 190.093 531.883Z" fill-rule="evenodd"/>
<path clip-path="url(#TextBounds)" d="M264.42 571.815L258.589 571.815L252.789 571.785C251.421 571.785 250.464 571.698 249.918 571.522C248.921 571.17 248.423 570.428 248.423 569.295C248.423 567.323 249.957 566.336 253.023 566.336L254.429 566.366L255.63 566.424C255.63 565.487 255.547 564.1 255.381 562.264C255.215 560.428 255.132 559.051 255.132 558.133C255.132 555.653 255.357 551.883 255.806 546.825C256.236 541.844 256.441 538.065 256.421 535.487C253.804 537.518 252.134 538.534 251.412 538.534C250.63 538.534 249.952 538.241 249.376 537.655C248.799 537.069 248.511 536.395 248.511 535.633C248.511 534.715 249.351 533.602 251.031 532.293C252.086 531.551 253.58 530.36 255.513 528.719C257.232 526.981 258.873 526.112 260.435 526.112C261.744 526.112 262.398 526.864 262.398 528.368C262.398 528.817 262.339 529.486 262.222 530.374C262.105 531.263 262.046 531.932 262.046 532.381C262.046 533.026 262.081 534.002 262.149 535.311C262.217 536.619 262.252 537.596 262.252 538.241C262.252 540.467 262.017 543.787 261.548 548.202C261.08 552.616 260.845 555.926 260.845 558.133C260.845 559.266 260.923 560.643 261.08 562.264C261.236 563.885 261.324 565.213 261.343 566.248L264.42 566.19C265.24 566.19 265.919 566.458 266.456 566.995C266.993 567.533 267.261 568.202 267.261 569.002C267.261 569.823 266.993 570.496 266.456 571.024C265.919 571.551 265.24 571.815 264.42 571.815Z" fill-rule="evenodd"/>
<path clip-path="url(#TextBounds)" d="M306.636 572.928C300.699 572.928 296.363 570.213 293.628 564.784C291.558 560.604 290.523 555.164 290.523 548.465C290.523 542.801 291.871 537.86 294.566 533.641C297.75 528.7 302.076 526.229 307.545 526.229C312.681 526.229 316.685 528.416 319.556 532.791C322.037 536.58 323.277 541.2 323.277 546.649C323.277 555.399 321.89 561.966 319.117 566.351C316.343 570.736 312.183 572.928 306.636 572.928ZM307.515 531.883C303.882 531.883 301.002 533.729 298.873 537.42C297.095 540.506 296.207 544.032 296.207 547.996C296.207 554.422 297.076 559.246 298.814 562.469C300.552 565.692 303.16 567.303 306.636 567.303C310.777 567.303 313.746 564.94 315.543 560.213C316.793 556.932 317.418 552.772 317.418 547.733C317.418 542.44 316.592 538.475 314.942 535.838C313.292 533.202 310.816 531.883 307.515 531.883Z" fill-rule="evenodd"/>
<path clip-path="url(#TextBounds)" d="M363.912 571.815L358.082 571.815L352.281 571.785C350.914 571.785 349.957 571.698 349.41 571.522C348.414 571.17 347.916 570.428 347.916 569.295C347.916 567.323 349.449 566.336 352.515 566.336L353.921 566.366L355.123 566.424C355.123 565.487 355.04 564.1 354.874 562.264C354.708 560.428 354.625 559.051 354.625 558.133C354.625 555.653 354.849 551.883 355.298 546.825C355.728 541.844 355.933 538.065 355.914 535.487C353.296 537.518 351.627 538.534 350.904 538.534C350.123 538.534 349.444 538.241 348.868 537.655C348.292 537.069 348.003 536.395 348.003 535.633C348.003 534.715 348.843 533.602 350.523 532.293C351.578 531.551 353.072 530.36 355.005 528.719C356.724 526.981 358.365 526.112 359.927 526.112C361.236 526.112 361.89 526.864 361.89 528.368C361.89 528.817 361.832 529.486 361.714 530.374C361.597 531.263 361.539 531.932 361.539 532.381C361.539 533.026 361.573 534.002 361.641 535.311C361.71 536.619 361.744 537.596 361.744 538.241C361.744 540.467 361.509 543.787 361.041 548.202C360.572 552.616 360.337 555.926 360.337 558.133C360.337 559.266 360.416 560.643 360.572 562.264C360.728 563.885 360.816 565.213 360.836 566.248L363.912 566.19C364.732 566.19 365.411 566.458 365.948 566.995C366.485 567.533 366.753 568.202 366.753 569.002C366.753 569.823 366.485 570.496 365.948 571.024C365.411 571.551 364.732 571.815 363.912 571.815Z" fill-rule="evenodd"/>
<path clip-path="url(#TextBounds)" d="M406.128 572.928C400.191 572.928 395.855 570.213 393.121 564.784C391.05 560.604 390.015 555.164 390.015 548.465C390.015 542.801 391.363 537.86 394.058 533.641C397.242 528.7 401.568 526.229 407.037 526.229C412.173 526.229 416.177 528.416 419.048 532.791C421.529 536.58 422.769 541.2 422.769 546.649C422.769 555.399 421.382 561.966 418.609 566.351C415.836 570.736 411.675 572.928 406.128 572.928ZM407.007 531.883C403.375 531.883 400.494 533.729 398.365 537.42C396.587 540.506 395.699 544.032 395.699 547.996C395.699 554.422 396.568 559.246 398.306 562.469C400.045 565.692 402.652 567.303 406.128 567.303C410.269 567.303 413.238 564.94 415.035 560.213C416.285 556.932 416.91 552.772 416.91 547.733C416.91 542.44 416.085 538.475 414.434 535.838C412.784 533.202 410.308 531.883 407.007 531.883Z" fill-rule="evenodd"/>
<path clip-path="url(#TextBounds)" d="M463.404 571.815L457.574 571.815L451.773 571.785C450.406 571.785 449.449 571.698 448.902 571.522C447.906 571.17 447.408 570.428 447.408 569.295C447.408 567.323 448.941 566.336 452.007 566.336L453.414 566.366L454.615 566.424C454.615 565.487 454.532 564.1 454.366 562.264C454.2 560.428 454.117 559.051 454.117 558.133C454.117 555.653 454.341 551.883 454.791 546.825C455.22 541.844 455.425 538.065 455.406 535.487C452.789 537.518 451.119 538.534 450.396 538.534C449.615 538.534 448.936 538.241 448.36 537.655C447.784 537.069 447.496 536.395 447.496 535.633C447.496 534.715 448.336 533.602 450.015 532.293C451.07 531.551 452.564 530.36 454.498 528.719C456.216 526.981 457.857 526.112 459.42 526.112C460.728 526.112 461.382 526.864 461.382 528.368C461.382 528.817 461.324 529.486 461.207 530.374C461.089 531.263 461.031 531.932 461.031 532.381C461.031 533.026 461.065 534.002 461.133 535.311C461.202 536.619 461.236 537.596 461.236 538.241C461.236 540.467 461.002 543.787 460.533 548.202C460.064 552.616 459.83 555.926 459.83 558.133C459.83 559.266 459.908 560.643 460.064 562.264C460.22 563.885 460.308 565.213 460.328 566.248L463.404 566.19C464.224 566.19 464.903 566.458 465.44 566.995C465.977 567.533 466.246 568.202 466.246 569.002C466.246 569.823 465.977 570.496 465.44 571.024C464.903 571.551 464.224 571.815 463.404 571.815Z" fill-rule="evenodd"/>
<path clip-path="url(#TextBounds)" d="M505.621 572.928C499.683 572.928 495.347 570.213 492.613 564.784C490.543 560.604 489.507 555.164 489.507 548.465C489.507 542.801 490.855 537.86 493.55 533.641C496.734 528.7 501.06 526.229 506.529 526.229C511.666 526.229 515.67 528.416 518.541 532.791C521.021 536.58 522.261 541.2 522.261 546.649C522.261 555.399 520.875 561.966 518.101 566.351C515.328 570.736 511.168 572.928 505.621 572.928ZM506.5 531.883C502.867 531.883 499.986 533.729 497.857 537.42C496.08 540.506 495.191 544.032 495.191 547.996C495.191 554.422 496.06 559.246 497.798 562.469C499.537 565.692 502.144 567.303 505.621 567.303C509.761 567.303 512.73 564.94 514.527 560.213C515.777 556.932 516.402 552.772 516.402 547.733C516.402 542.44 515.577 538.475 513.926 535.838C512.276 533.202 509.8 531.883 506.5 531.883Z" fill-rule="evenodd"/>
<path clip-path="url(#TextBounds)" d="M562.896 571.815L557.066 571.815L551.265 571.785C549.898 571.785 548.941 571.698 548.394 571.522C547.398 571.17 546.9 570.428 546.9 569.295C546.9 567.323 548.433 566.336 551.5 566.336L552.906 566.366L554.107 566.424C554.107 565.487 554.024 564.1 553.858 562.264C553.692 560.428 553.609 559.051 553.609 558.133C553.609 555.653 553.834 551.883 554.283 546.825C554.712 541.844 554.918 538.065 554.898 535.487C552.281 537.518 550.611 538.534 549.888 538.534C549.107 538.534 548.428 538.241 547.852 537.655C547.276 537.069 546.988 536.395 546.988 535.633C546.988 534.715 547.828 533.602 549.507 532.293C550.562 531.551 552.056 530.36 553.99 528.719C555.709 526.981 557.349 526.112 558.912 526.112C560.22 526.112 560.875 526.864 560.875 528.368C560.875 528.817 560.816 529.486 560.699 530.374C560.582 531.263 560.523 531.932 560.523 532.381C560.523 533.026 560.557 534.002 560.626 535.311C560.694 536.619 560.728 537.596 560.728 538.241C560.728 540.467 560.494 543.787 560.025 548.202C559.556 552.616 559.322 555.926 559.322 558.133C559.322 559.266 559.4 560.643 559.556 562.264C559.712 563.885 559.8 565.213 559.82 566.248L562.896 566.19C563.716 566.19 564.395 566.458 564.932 566.995C565.469 567.533 565.738 568.202 565.738 569.002C565.738 569.823 565.469 570.496 564.932 571.024C564.395 571.551 563.716 571.815 562.896 571.815Z" fill-rule="evenodd"/>
<path clip-path="url(#TextBounds)" d="M605.113 572.928C599.175 572.928 594.839 570.213 592.105 564.784C590.035 560.604 589 555.164 589 548.465C589 542.801 590.347 537.86 593.043 533.641C596.226 528.7 600.552 526.229 606.021 526.229C611.158 526.229 615.162 528.416 618.033 532.791C620.513 536.58 621.753 541.2 621.753 546.649C621.753 555.399 620.367 561.966 617.593 566.351C614.82 570.736 610.66 572.928 605.113 572.928ZM605.992 531.883C602.359 531.883 599.478 533.729 597.349 537.42C595.572 540.506 594.683 544.032 594.683 547.996C594.683 554.422 595.552 559.246 597.291 562.469C599.029 565.692 601.636 567.303 605.113 567.303C609.253 567.303 612.222 564.94 614.019 560.213C615.269 556.932 615.894 552.772 615.894 547.733C615.894 542.44 615.069 538.475 613.419 535.838C611.768 533.202 609.293 531.883 605.992 531.883Z" fill-rule="evenodd"/>
<path clip-path="url(#TextBounds)" d="M662.388 571.815L656.558 571.815L650.757 571.785C649.39 571.785 648.433 571.698 647.886 571.522C646.89 571.17 646.392 570.428 646.392 569.295C646.392 567.323 647.925 566.336 650.992 566.336L652.398 566.366L653.599 566.424C653.599 565.487 653.516 564.1 653.35 562.264C653.184 560.428 653.101 559.051 653.101 558.133C653.101 555.653 653.326 551.883 653.775 546.825C654.205 541.844 654.41 538.065 654.39 535.487C651.773 537.518 650.103 538.534 649.38 538.534C648.599 538.534 647.92 538.241 647.344 537.655C646.768 537.069 646.48 536.395 646.48 535.633C646.48 534.715 647.32 533.602 649 532.293C650.054 531.551 651.548 530.36 653.482 528.719C655.201 526.981 656.841 526.112 658.404 526.112C659.712 526.112 660.367 526.864 660.367 528.368C660.367 528.817 660.308 529.486 660.191 530.374C660.074 531.263 660.015 531.932 660.015 532.381C660.015 533.026 660.049 534.002 660.118 535.311C660.186 536.619 660.22 537.596 660.22 538.241C660.22 540.467 659.986 543.787 659.517 548.202C659.048 552.616 658.814 555.926 658.814 558.133C658.814 559.266 658.892 560.643 659.048 562.264C659.205 563.885 659.293 565.213 659.312 566.248L662.388 566.19C663.209 566.19 663.887 566.458 664.424 566.995C664.961 567.533 665.23 568.202 665.23 569.002C665.23 569.823 664.961 570.496 664.424 571.024C663.887 571.551 663.209 571.815 662.388 571.815Z" fill-rule="evenodd"/>
<path clip-path="url(#TextBounds)" d="M189.214 655.928C183.277 655.928 178.941 653.213 176.207 647.784C174.136 643.604 173.101 638.164 173.101 631.465C173.101 625.801 174.449 620.86 177.144 616.641C180.328 611.7 184.654 609.229 190.123 609.229C195.259 609.229 199.263 611.416 202.134 615.791C204.615 619.58 205.855 624.2 205.855 629.649C205.855 638.399 204.468 644.966 201.695 649.351C198.921 653.736 194.761 655.928 189.214 655.928ZM190.093 614.883C186.461 614.883 183.58 616.729 181.451 620.42C179.673 623.506 178.785 627.032 178.785 630.996C178.785 637.422 179.654 642.246 181.392 645.469C183.13 648.692 185.738 650.303 189.214 650.303C193.355 650.303 196.324 647.94 198.121 643.213C199.371 639.932 199.996 635.772 199.996 630.733C199.996 625.44 199.17 621.475 197.52 618.838C195.87 616.202 193.394 614.883 190.093 614.883Z" fill-rule="evenodd"/>
<path clip-path="url(#TextBounds)" d="M246.49 654.815L240.66 654.815L234.859 654.785C233.492 654.785 232.535 654.698 231.988 654.522C230.992 654.17 230.494 653.428 230.494 652.295C230.494 650.323 232.027 649.336 235.093 649.336L236.5 649.366L237.701 649.424C237.701 648.487 237.618 647.1 237.452 645.264C237.286 643.428 237.203 642.051 237.203 641.133C237.203 638.653 237.427 634.883 237.877 629.825C238.306 624.844 238.511 621.065 238.492 618.487C235.875 620.518 234.205 621.534 233.482 621.534C232.701 621.534 232.022 621.241 231.446 620.655C230.87 620.069 230.582 619.395 230.582 618.633C230.582 617.715 231.421 616.602 233.101 615.293C234.156 614.551 235.65 613.36 237.584 611.719C239.302 609.981 240.943 609.112 242.505 609.112C243.814 609.112 244.468 609.864 244.468 611.368C244.468 611.817 244.41 612.486 244.293 613.374C244.175 614.263 244.117 614.932 244.117 615.381C244.117 616.026 244.151 617.002 244.219 618.311C244.288 619.619 244.322 620.596 244.322 621.241C244.322 623.467 244.087 626.787 243.619 631.202C243.15 635.616 242.916 638.926 242.916 641.133C242.916 642.266 242.994 643.643 243.15 645.264C243.306 646.885 243.394 648.213 243.414 649.248L246.49 649.19C247.31 649.19 247.989 649.458 248.526 649.995C249.063 650.533 249.332 651.202 249.332 652.002C249.332 652.823 249.063 653.496 248.526 654.024C247.989 654.551 247.31 654.815 246.49 654.815Z" fill-rule="evenodd"/>
<path clip-path="url(#TextBounds)" d="M288.707 655.928C282.769 655.928 278.433 653.213 275.699 647.784C273.628 643.604 272.593 638.164 272.593 631.465C272.593 625.801 273.941 620.86 276.636 616.641C279.82 611.7 284.146 609.229 289.615 609.229C294.752 609.229 298.755 611.416 301.627 615.791C304.107 619.58 305.347 624.2 305.347 629.649C305.347 638.399 303.961 644.966 301.187 649.351C298.414 653.736 294.253 655.928 288.707 655.928ZM289.586 614.883C285.953 614.883 283.072 616.729 280.943 620.42C279.166 623.506 278.277 627.032 278.277 630.996C278.277 637.422 279.146 642.246 280.884 645.469C282.623 648.692 285.23 650.303 288.707 650.303C292.847 650.303 295.816 647.94 297.613 643.213C298.863 639.932 299.488 635.772 299.488 630.733C299.488 625.44 298.663 621.475 297.012 618.838C295.362 616.202 292.886 614.883 289.586 614.883Z" fill-rule="evenodd"/>
<path clip-path="url(#TextBounds)" d="M345.982 654.815L340.152 654.815L334.351 654.785C332.984 654.785 332.027 654.698 331.48 654.522C330.484 654.17 329.986 653.428 329.986 652.295C329.986 650.323 331.519 649.336 334.586 649.336L335.992 649.366L337.193 649.424C337.193 648.487 337.11 647.1 336.944 645.264C336.778 643.428 336.695 642.051 336.695 641.133C336.695 638.653 336.92 634.883 337.369 629.825C337.798 624.844 338.003 621.065 337.984 618.487C335.367 620.518 333.697 621.534 332.974 621.534C332.193 621.534 331.514 621.241 330.938 620.655C330.362 620.069 330.074 619.395 330.074 618.633C330.074 617.715 330.914 616.602 332.593 615.293C333.648 614.551 335.142 613.36 337.076 611.719C338.795 609.981 340.435 609.112 341.998 609.112C343.306 609.112 343.961 609.864 343.961 611.368C343.961 611.817 343.902 612.486 343.785 613.374C343.668 614.263 343.609 614.932 343.609 615.381C343.609 616.026 343.643 617.002 343.711 618.311C343.78 619.619 343.814 620.596 343.814 621.241C343.814 623.467 343.58 626.787 343.111 631.202C342.642 635.616 342.408 638.926 342.408 641.133C342.408 642.266 342.486 643.643 342.642 645.264C342.798 646.885 342.886 648.213 342.906 649.248L345.982 649.19C346.802 649.19 347.481 649.458 348.018 649.995C348.555 650.533 348.824 651.202 348.824 652.002C348.824 652.823 348.555 653.496 348.018 654.024C347.481 654.551 346.802 654.815 345.982 654.815Z" fill-rule="evenodd"/>
<path clip-path="url(#TextBounds)" d="M388.199 655.928C382.261 655.928 377.925 653.213 375.191 647.784C373.121 643.604 372.086 638.164 372.086 631.465C372.086 625.801 373.433 620.86 376.128 616.641C379.312 611.7 383.638 609.229 389.107 609.229C394.244 609.229 398.248 611.416 401.119 615.791C403.599 619.58 404.839 624.2 404.839 629.649C404.839 638.399 403.453 644.966 400.679 649.351C397.906 653.736 393.746 655.928 388.199 655.928ZM389.078 614.883C385.445 614.883 382.564 616.729 380.435 620.42C378.658 623.506 377.769 627.032 377.769 630.996C377.769 637.422 378.638 642.246 380.377 645.469C382.115 648.692 384.722 650.303 388.199 650.303C392.339 650.303 395.308 647.94 397.105 643.213C398.355 639.932 398.98 635.772 398.98 630.733C398.98 625.44 398.155 621.475 396.504 618.838C394.854 616.202 392.378 614.883 389.078 614.883Z" fill-rule="evenodd"/>
<path clip-path="url(#TextBounds)" d="M445.474 654.815L439.644 654.815L433.843 654.785C432.476 654.785 431.519 654.698 430.972 654.522C429.976 654.17 429.478 653.428 429.478 652.295C429.478 650.323 431.011 649.336 434.078 649.336L435.484 649.366L436.685 649.424C436.685 648.487 436.602 647.1 436.436 645.264C436.27 643.428 436.187 642.051 436.187 641.133C436.187 638.653 436.412 634.883 436.861 629.825C437.291 624.844 437.496 621.065 437.476 618.487C434.859 620.518 433.189 621.534 432.466 621.534C431.685 621.534 431.006 621.241 430.43 620.655C429.854 620.069 429.566 619.395 429.566 618.633C429.566 617.715 430.406 616.602 432.086 615.293C433.14 614.551 434.634 613.36 436.568 611.719C438.287 609.981 439.927 609.112 441.49 609.112C442.798 609.112 443.453 609.864 443.453 611.368C443.453 611.817 443.394 612.486 443.277 613.374C443.16 614.263 443.101 614.932 443.101 615.381C443.101 616.026 443.135 617.002 443.204 618.311C443.272 619.619 443.306 620.596 443.306 621.241C443.306 623.467 443.072 626.787 442.603 631.202C442.134 635.616 441.9 638.926 441.9 641.133C441.9 642.266 441.978 643.643 442.134 645.264C442.291 646.885 442.378 648.213 442.398 649.248L445.474 649.19C446.295 649.19 446.973 649.458 447.51 649.995C448.047 650.533 448.316 651.202 448.316 652.002C448.316 652.823 448.047 653.496 447.51 654.024C446.973 654.551 446.295 654.815 445.474 654.815Z" fill-rule="evenodd"/>
<path clip-path="url(#TextBounds)" d="M505.621 655.928C499.683 655.928 495.347 653.213 492.613 647.784C490.543 643.604 489.507 638.164 489.507 631.465C489.507 625.801 490.855 620.86 493.55 616.641C496.734 611.7 501.06 609.229 506.529 609.229C511.666 609.229 515.67 611.416 518.541 615.791C521.021 619.58 522.261 624.2 522.261 629.649C522.261 638.399 520.875 644.966 518.101 649.351C515.328 653.736 511.168 655.928 505.621 655.928ZM506.5 614.883C502.867 614.883 499.986 616.729 497.857 620.42C496.08 623.506 495.191 627.032 495.191 630.996C495.191 637.422 496.06 642.246 497.798 645.469C499.537 648.692 502.144 650.303 505.621 650.303C509.761 650.303 512.73 647.94 514.527 643.213C515.777 639.932 516.402 635.772 516.402 630.733C516.402 625.44 515.577 621.475 513.926 618.838C512.276 616.202 509.8 614.883 506.5 614.883Z" fill-rule="evenodd"/>
<path clip-path="url(#TextBounds)" d="M562.896 654.815L557.066 654.815L551.265 654.785C549.898 654.785 548.941 654.698 548.394 654.522C547.398 654.17 546.9 653.428 546.9 652.295C546.9 650.323 548.433 649.336 551.5 649.336L552.906 649.366L554.107 649.424C554.107 648.487 554.024 647.1 553.858 645.264C553.692 643.428 553.609 642.051 553.609 641.133C553.609 638.653 553.834 634.883 554.283 629.825C554.712 624.844 554.918 621.065 554.898 618.487C552.281 620.518 550.611 621.534 549.888 621.534C549.107 621.534 548.428 621.241 547.852 620.655C547.276 620.069 546.988 619.395 546.988 618.633C546.988 617.715 547.828 616.602 549.507 615.293C550.562 614.551 552.056 613.36 553.99 611.719C555.709 609.981 557.349 609.112 558.912 609.112C560.22 609.112 560.875 609.864 560.875 611.368C560.875 611.817 560.816 612.486 560.699 613.374C560.582 614.263 560.523 614.932 560.523 615.381C560.523 616.026 560.557 617.002 560.626 618.311C560.694 619.619 560.728 620.596 560.728 621.241C560.728 623.467 560.494 626.787 560.025 631.202C559.556 635.616 559.322 638.926 559.322 641.133C559.322 642.266 559.4 643.643 559.556 645.264C559.712 646.885 559.8 648.213 559.82 649.248L562.896 649.19C563.716 649.19 564.395 649.458 564.932 649.995C565.469 650.533 565.738 651.202 565.738 652.002C565.738 652.823 565.469 653.496 564.932 654.024C564.395 654.551 563.716 654.815 562.896 654.815Z" fill-rule="evenodd"/>
<path clip-path="url(#TextBounds)" d="M605.113 655.928C599.175 655.928 594.839 653.213 592.105 647.784C590.035 643.604 589 638.164 589 631.465C589 625.801 590.347 620.86 593.043 616.641C596.226 611.7 600.552 609.229 606.021 609.229C611.158 609.229 615.162 611.416 618.033 615.791C620.513 619.58 621.753 624.2 621.753 629.649C621.753 638.399 620.367 644.966 617.593 649.351C614.82 653.736 610.66 655.928 605.113 655.928ZM605.992 614.883C602.359 614.883 599.478 616.729 597.349 620.42C595.572 623.506 594.683 627.032 594.683 630.996C594.683 637.422 595.552 642.246 597.291 645.469C599.029 648.692 601.636 650.303 605.113 650.303C609.253 650.303 612.222 647.94 614.019 643.213C615.269 639.932 615.894 635.772 615.894 630.733C615.894 625.44 615.069 621.475 613.419 618.838C611.768 616.202 609.293 614.883 605.992 614.883Z" fill-rule="evenodd"/>
<path clip-path="url(#TextBounds)" d="M662.388 654.815L656.558 654.815L650.757 654.785C649.39 654.785 648.433 654.698 647.886 654.522C646.89 654.17 646.392 653.428 646.392 652.295C646.392 650.323 647.925 649.336 650.992 649.336L652.398 649.366L653.599 649.424C653.599 648.487 653.516 647.1 653.35 645.264C653.184 643.428 653.101 642.051 653.101 641.133C653.101 638.653 653.326 634.883 653.775 629.825C654.205 624.844 654.41 621.065 654.39 618.487C651.773 620.518 650.103 621.534 649.38 621.534C648.599 621.534 647.92 621.241 647.344 620.655C646.768 620.069 646.48 619.395 646.48 618.633C646.48 617.715 647.32 616.602 649 615.293C650.054 614.551 651.548 613.36 653.482 611.719C655.201 609.981 656.841 609.112 658.404 609.112C659.712 609.112 660.367 609.864 660.367 611.368C660.367 611.817 660.308 612.486 660.191 613.374C660.074 614.263 660.015 614.932 660.015 615.381C660.015 616.026 660.049 617.002 660.118 618.311C660.186 619.619 660.22 620.596 660.22 621.241C660.22 623.467 659.986 626.787 659.517 631.202C659.048 635.616 658.814 638.926 658.814 641.133C658.814 642.266 658.892 643.643 659.048 645.264C659.205 646.885 659.293 648.213 659.312 649.248L662.388 649.19C663.209 649.19 663.887 649.458 664.424 649.995C664.961 650.533 665.23 651.202 665.23 652.002C665.23 652.823 664.961 653.496 664.424 654.024C663.887 654.551 663.209 654.815 662.388 654.815Z" fill-rule="evenodd"/>
<path clip-path="url(#TextBounds)" d="M189.214 738.928C183.277 738.928 178.941 736.213 176.207 730.784C174.136 726.604 173.101 721.164 173.101 714.465C173.101 708.801 174.449 703.86 177.144 699.641C180.328 694.7 184.654 692.229 190.123 692.229C195.259 692.229 199.263 694.416 202.134 698.791C204.615 702.58 205.855 707.2 205.855 712.649C205.855 721.399 204.468 727.966 201.695 732.351C198.921 736.736 194.761 738.928 189.214 738.928ZM190.093 697.883C186.461 697.883 183.58 699.729 181.451 703.42C179.673 706.506 178.785 710.032 178.785 713.996C178.785 720.422 179.654 725.246 181.392 728.469C183.13 731.692 185.738 733.303 189.214 733.303C193.355 733.303 196.324 730.94 198.121 726.213C199.371 722.932 199.996 718.772 199.996 713.733C199.996 708.44 199.17 704.475 197.52 701.838C195.87 699.202 193.394 697.883 190.093 697.883Z" fill-rule="evenodd"/>
<path clip-path="url(#TextBounds)" d="M246.49 737.815L240.66 737.815L234.859 737.785C233.492 737.785 232.535 737.698 231.988 737.522C230.992 737.17 230.494 736.428 230.494 735.295C230.494 733.323 232.027 732.336 235.093 732.336L236.5 732.366L237.701 732.424C237.701 731.487 237.618 730.1 237.452 728.264C237.286 726.428 237.203 725.051 237.203 724.133C237.203 721.653 237.427 717.883 237.877 712.825C238.306 707.844 238.511 704.065 238.492 701.487C235.875 703.518 234.205 704.534 233.482 704.534C232.701 704.534 232.022 704.241 231.446 703.655C230.87 703.069 230.582 702.395 230.582 701.633C230.582 700.715 231.421 699.602 233.101 698.293C234.156 697.551 235.65 696.36 237.584 694.719C239.302 692.981 240.943 692.112 242.505 692.112C243.814 692.112 244.468 692.864 244.468 694.368C244.468 694.817 244.41 695.486 244.293 696.374C244.175 697.263 244.117 697.932 244.117 698.381C244.117 699.026 244.151 700.002 244.219 701.311C244.288 702.619 244.322 703.596 244.322 704.241C244.322 706.467 244.087 709.787 243.619 714.202C243.15 718.616 242.916 721.926 242.916 724.133C242.916 725.266 242.994 726.643 243.15 728.264C243.306 729.885 243.394 731.213 243.414 732.248L246.49 732.19C247.31 732.19 247.989 732.458 248.526 732.995C249.063 733.533 249.332 734.202 249.332 735.002C249.332 735.823 249.063 736.496 248.526 737.024C247.989 737.551 247.31 737.815 246.49 737.815Z" fill-rule="evenodd"/>
<path clip-path="url(#TextBounds)" d="M288.707 738.928C282.769 738.928 278.433 736.213 275.699 730.784C273.628 726.604 272.593 721.164 272.593 714.465C272.593 708.801 273.941 703.86 276.636 699.641C279.82 694.7 284.146 692.229 289.615 692.229C294.752 692.229 298.755 694.416 301.627 698.791C304.107 702.58 305.347 707.2 305.347 712.649C305.347 721.399 303.961 727.966 301.187 732.351C298.414 736.736 294.253 738.928 288.707 738.928ZM289.586 697.883C285.953 697.883 283.072 699.729 280.943 703.42C279.166 706.506 278.277 710.032 278.277 713.996C278.277 720.422 279.146 725.246 280.884 728.469C282.623 731.692 285.23 733.303 288.707 733.303C292.847 733.303 295.816 730.94 297.613 726.213C298.863 722.932 299.488 718.772 299.488 713.733C299.488 708.44 298.663 704.475 297.012 701.838C295.362 699.202 292.886 697.883 289.586 697.883Z" fill-rule="evenodd"/>
<path clip-path="url(#TextBounds)" d="M345.982 737.815L340.152 737.815L334.351 737.785C332.984 737.785 332.027 737.698 331.48 737.522C330.484 737.17 329.986 736.428 329.986 735.295C329.986 733.323 331.519 732.336 334.586 732.336L335.992 732.366L337.193 732.424C337.193 731.487 337.11 730.1 336.944 728.264C336.778 726.428 336.695 725.051 336.695 724.133C336.695 721.653 336.92 717.883 337.369 712.825C337.798 707.844 338.003 704.065 337.984 701.487C335.367 703.518 333.697 704.534 332.974 704.534C332.193 704.534 331.514 704.241 330.938 703.655C330.362 703.069 330.074 702.395 330.074 701.633C330.074 700.715 330.914 699.602 332.593 698.293C333.648 697.551 335.142 696.36 337.076 694.719C338.795 692.981 340.435 692.112 341.998 692.112C343.306 692.112 343.961 692.864 343.961 694.368C343.961 694.817 343.902 695.486 343.785 696.374C343.668 697.263 343.609 697.932 343.609 698.381C343.609 699.026 343.643 700.002 343.711 701.311C343.78 702.619 343.814 703.596 343.814 704.241C343.814 706.467 343.58 709.787 343.111 714.202C342.642 718.616 342.408 721.926 342.408 724.133C342.408 725.266 342.486 726.643 342.642 728.264C342.798 729.885 342.886 731.213 342.906 732.248L345.982 732.19C346.802 732.19 347.481 732.458 348.018 732.995C348.555 733.533 348.824 734.202 348.824 735.002C348.824 735.823 348.555 736.496 348.018 737.024C347.481 737.551 346.802 737.815 345.982 737.815Z" fill-rule="evenodd"/>
<path clip-path="url(#TextBounds)" d="M388.199 738.928C382.261 738.928 377.925 736.213 375.191 730.784C373.121 726.604 372.086 721.164 372.086 714.465C372.086 708.801 373.433 703.86 376.128 699.641C379.312 694.7 383.638 692.229 389.107 692.229C394.244 692.229 398.248 694.416 401.119 698.791C403.599 702.58 404.839 707.2 404.839 712.649C404.839 721.399 403.453 727.966 400.679 732.351C397.906 736.736 393.746 738.928 388.199 738.928ZM389.078 697.883C385.445 697.883 382.564 699.729 380.435 703.42C378.658 706.506 377.769 710.032 377.769 713.996C377.769 720.422 378.638 725.246 380.377 728.469C382.115 731.692 384.722 733.303 388.199 733.303C392.339 733.303 395.308 730.94 397.105 726.213C398.355 722.932 398.98 718.772 398.98 713.733C398.98 708.44 398.155 704.475 396.504 701.838C394.854 699.202 392.378 697.883 389.078 697.883Z" fill-rule="evenodd"/>
<path clip-path="url(#TextBounds)" d="M445.474 737.815L439.644 737.815L433.843 737.785C432.476 737.785 431.519 737.698 430.972 737.522C429.976 737.17 429.478 736.428 429.478 735.295C429.478 733.323 431.011 732.336 434.078 732.336L435.484 732.366L436.685 732.424C436.685 731.487 436.602 730.1 436.436 728.264C436.27 726.428 436.187 725.051 436.187 724.133C436.187 721.653 436.412 717.883 436.861 712.825C437.291 707.844 437.496 704.065 437.476 701.487C434.859 703.518 433.189 704.534 432.466 704.534C431.685 704.534 431.006 704.241 430.43 703.655C429.854 703.069 429.566 702.395 429.566 701.633C429.566 700.715 430.406 699.602 432.086 698.293C433.14 697.551 434.634 696.36 436.568 694.719C438.287 692.981 439.927 692.112 441.49 692.112C442.798 692.112 443.453 692.864 443.453 694.368C443.453 694.817 443.394 695.486 443.277 696.374C443.16 697.263 443.101 697.932 443.101 698.381C443.101 699.026 443.135 700.002 443.204 701.311C443.272 702.619 443.306 703.596 443.306 704.241C443.306 706.467 443.072 709.787 442.603 714.202C442.134 718.616 441.9 721.926 441.9 724.133C441.9 725.266 441.978 726.643 442.134 728.264C442.291 729.885 442.378 731.213 442.398 732.248L445.474 732.19C446.295 732.19 446.973 732.458 447.51 732.995C448.047 733.533 448.316 734.202 448.316 735.002C448.316 735.823 448.047 736.496 447.51 737.024C446.973 737.551 446.295 737.815 445.474 737.815Z" fill-rule="evenodd"/>
<path clip-path="url(#TextBounds)" d="M505.621 738.928C499.683 738.928 495.347 736.213 492.613 730.784C490.543 726.604 489.507 721.164 489.507 714.465C489.507 708.801 490.855 703.86 493.55 699.641C496.734 694.7 501.06 692.229 506.529 692.229C511.666 692.229 515.67 694.416 518.541 698.791C521.021 702.58 522.261 707.2 522.261 712.649C522.261 721.399 520.875 727.966 518.101 732.351C515.328 736.736 511.168 738.928 505.621 738.928ZM506.5 697.883C502.867 697.883 499.986 699.729 497.857 703.42C496.08 706.506 495.191 710.032 495.191 713.996C495.191 720.422 496.06 725.246 497.798 728.469C499.537 731.692 502.144 733.303 505.621 733.303C509.761 733.303 512.73 730.94 514.527 726.213C515.777 722.932 516.402 718.772 516.402 713.733C516.402 708.44 515.577 704.475 513.926 701.838C512.276 699.202 509.8 697.883 506.5 697.883Z" fill-rule="evenodd"/>
<path clip-path="url(#TextBounds)" d="M562.896 737.815L557.066 737.815L551.265 737.785C549.898 737.785 548.941 737.698 548.394 737.522C547.398 737.17 546.9 736.428 546.9 735.295C546.9 733.323 548.433 732.336 551.5 732.336L552.906 732.366L554.107 732.424C554.107 731.487 554.024 730.1 553.858 728.264C553.692 726.428 553.609 725.051 553.609 724.133C553.609 721.653 553.834 717.883 554.283 712.825C554.712 707.844 554.918 704.065 554.898 701.487C552.281 703.518 550.611 704.534 549.888 704.534C549.107 704.534 548.428 704.241 547.852 703.655C547.276 703.069 546.988 702.395 546.988 701.633C546.988 700.715 547.828 699.602 549.507 698.293C550.562 697.551 552.056 696.36 553.99 694.719C555.709 692.981 557.349 692.112 558.912 692.112C560.22 692.112 560.875 692.864 560.875 694.368C560.875 694.817 560.816 695.486 560.699 696.374C560.582 697.263 560.523 697.932 560.523 698.381C560.523 699.026 560.557 700.002 560.626 701.311C560.694 702.619 560.728 703.596 560.728 704.241C560.728 706.467 560.494 709.787 560.025 714.202C559.556 718.616 559.322 721.926 559.322 724.133C559.322 725.266 559.4 726.643 559.556 728.264C559.712 729.885 559.8 731.213 559.82 732.248L562.896 732.19C563.716 732.19 564.395 732.458 564.932 732.995C565.469 733.533 565.738 734.202 565.738 735.002C565.738 735.823 565.469 736.496 564.932 737.024C564.395 737.551 563.716 737.815 562.896 737.815Z" fill-rule="evenodd"/>
<path clip-path="url(#TextBounds)" d="M605.113 738.928C599.175 738.928 594.839 736.213 592.105 730.784C590.035 726.604 589 721.164 589 714.465C589 708.801 590.347 703.86 593.043 699.641C596.226 694.7 600.552 692.229 606.021 692.229C611.158 692.229 615.162 694.416 618.033 698.791C620.513 702.58 621.753 707.2 621.753 712.649C621.753 721.399 620.367 727.966 617.593 732.351C614.82 736.736 610.66 738.928 605.113 738.928ZM605.992 697.883C602.359 697.883 599.478 699.729 597.349 703.42C595.572 706.506 594.683 710.032 594.683 713.996C594.683 720.422 595.552 725.246 597.291 728.469C599.029 731.692 601.636 733.303 605.113 733.303C609.253 733.303 612.222 730.94 614.019 726.213C615.269 722.932 615.894 718.772 615.894 713.733C615.894 708.44 615.069 704.475 613.419 701.838C611.768 699.202 609.293 697.883 605.992 697.883Z" fill-rule="evenodd"/>
<path clip-path="url(#TextBounds)" d="M662.388 737.815L656.558 737.815L650.757 737.785C649.39 737.785 648.433 737.698 647.886 737.522C646.89 737.17 646.392 736.428 646.392 735.295C646.392 733.323 647.925 732.336 650.992 732.336L652.398 732.366L653.599 732.424C653.599 731.487 653.516 730.1 653.35 728.264C653.184 726.428 653.101 725.051 653.101 724.133C653.101 721.653 653.326 717.883 653.775 712.825C654.205 707.844 654.41 704.065 654.39 701.487C651.773 703.518 650.103 704.534 649.38 704.534C648.599 704.534 647.92 704.241 647.344 703.655C646.768 703.069 646.48 702.395 646.48 701.633C646.48 700.715 647.32 699.602 649 698.293C650.054 697.551 651.548 696.36 653.482 694.719C655.201 692.981 656.841 692.112 658.404 692.112C659.712 692.112 660.367 692.864 660.367 694.368C660.367 694.817 660.308 695.486 660.191 696.374C660.074 697.263 660.015 697.932 660.015 698.381C660.015 699.026 660.049 700.002 660.118 701.311C660.186 702.619 660.22 703.596 660.22 704.241C660.22 706.467 659.986 709.787 659.517 714.202C659.048 718.616 658.814 721.926 658.814 724.133C658.814 725.266 658.892 726.643 659.048 728.264C659.205 729.885 659.293 731.213 659.312 732.248L662.388 732.19C663.209 732.19 663.887 732.458 664.424 732.995C664.961 733.533 665.23 734.202 665.23 735.002C665.23 735.823 664.961 736.496 664.424 737.024C663.887 737.551 663.209 737.815 662.388 737.815Z" fill-rule="evenodd"/>
</g>
</g>
</svg>
